<svg width="12" height="12" viewBox="0 0 12 12" fill="none" xmlns="http://www.w3.org/2000/svg">
<path d="M4.73333 8.23583L9.21533 3.75383L8.51283 3.05133L4.73333 6.83083L2.83333 4.93083L2.13083 5.63333L4.73333 8.23583ZM1.20517 11.3333C0.868389 11.3333 0.583333 11.2167 0.35 10.9833C0.116667 10.75 0 10.4649 0 10.1282V1.20517C0 0.868389 0.116667 0.583333 0.35 0.35C0.583333 0.116667 0.868389 0 1.20517 0H10.1282C10.4649 0 10.75 0.116667 10.9833 0.35C11.2167 0.583333 11.3333 0.868389 11.3333 1.20517V10.1282C11.3333 10.4649 11.2167 10.75 10.9833 10.9833C10.75 11.2167 10.4649 11.3333 10.1282 11.3333H1.20517Z" fill="#704C9B"/>
</svg>
