<svg width="32" height="32" viewBox="0 0 32 32" fill="none" xmlns="http://www.w3.org/2000/svg">
<g clip-path="url(#clip0_1222_3429)">
<path fill-rule="evenodd" clip-rule="evenodd" d="M16 31.9649C24.7952 31.9649 31.9688 24.799 31.9688 16.0037C31.9688 7.20848 24.7952 0.0349121 16 0.0349121C7.20475 0.0349121 0.03125 7.20841 0.03125 16.0037C0.03125 24.7989 7.20475 31.9649 16 31.9649Z" fill="#8E8E8E"/>
<path d="M11.1548 11.0318C11.1548 8.36069 13.3284 6.1875 16.0002 6.1875C18.6714 6.1875 20.8445 8.36069 20.8445 11.0318C20.8445 13.7029 18.6714 15.8761 16.0002 15.8761C13.3284 15.8761 11.1548 13.703 11.1548 11.0318ZM19.8531 17.9438H12.1441C9.53163 17.9438 7.40625 20.0691 7.40625 22.6816V25.1991C7.40625 25.5379 7.68088 25.8125 8.01963 25.8125H23.9808C24.3196 25.8125 24.5942 25.5379 24.5942 25.1991V22.6849C24.5941 20.0706 22.4673 17.9438 19.8531 17.9438Z" fill="white"/>
</g>
<defs>
<clipPath id="clip0_1222_3429">
<rect width="32" height="32" fill="white"/>
</clipPath>
</defs>
</svg>
