<svg width="32" height="32" viewBox="0 0 32 32" fill="none" xmlns="http://www.w3.org/2000/svg">
<path d="M29.3337 15.9993C29.3337 23.3631 23.3641 29.3327 16.0003 29.3327C8.63653 29.3327 2.66699 23.3631 2.66699 15.9993C2.66699 8.63555 8.63653 2.66602 16.0003 2.66602C23.3641 2.66602 29.3337 8.63555 29.3337 15.9993Z" stroke="#C558A1" stroke-width="2"/>
<path d="M5.33301 22.6673L11.4474 16.5529C12.3363 15.664 12.7807 15.2196 13.333 15.2196C13.8853 15.2196 14.3297 15.664 15.2186 16.5529L15.4474 16.7817C16.3363 17.6707 16.7807 18.1151 17.333 18.1151C17.8853 18.1151 18.3297 17.6707 19.2186 16.7817L26.6663 9.33398" stroke="#C558A1" stroke-width="2"/>
</svg>
