<svg width="20" height="20" viewBox="0 0 20 20" fill="none" xmlns="http://www.w3.org/2000/svg">
<path d="M6.66797 11.2487H13.3346M6.66797 7.08203H10.0013" stroke="#141413" stroke-width="1.2" stroke-linecap="round" stroke-linejoin="round"/>
<path d="M5.08364 15.832C4.00022 15.7254 3.18859 15.4 2.64428 14.8557C1.66797 13.8794 1.66797 12.308 1.66797 9.16536V8.7487C1.66797 5.606 1.66797 4.03466 2.64428 3.05834C3.62059 2.08203 5.19194 2.08203 8.33464 2.08203H11.668C14.8106 2.08203 16.3821 2.08203 17.3583 3.05834C18.3346 4.03466 18.3346 5.606 18.3346 8.7487V9.16536C18.3346 12.308 18.3346 13.8794 17.3583 14.8557C16.3821 15.832 14.8106 15.832 11.668 15.832C11.2009 15.8424 10.8289 15.8779 10.4635 15.9612C9.4648 16.1911 8.54005 16.7021 7.62619 17.1478C6.32404 17.7827 5.67297 18.1002 5.26438 17.8029C4.48271 17.2208 5.24675 15.4169 5.41797 14.582" stroke="#141413" stroke-width="1.2" stroke-linecap="round" stroke-linejoin="round"/>
</svg>
