<svg width="155" height="27" viewBox="0 0 155 27" fill="none" xmlns="http://www.w3.org/2000/svg">
<path d="M8.74627 5.04023C3.91404 8.66242 -2.85108 17.2794 8.74627 22.7699C23.243 29.633 34.4544 1.33947 45.5979 6.85687C54.5127 11.2708 49.0866 16.445 48.7479 16.445C48.4092 16.445 43.8705 19.944 37.2995 15.6715C28.3386 9.84477 20.2217 -1.29384 8.74627 5.04023Z" stroke="url(#paint0_linear_989_593)" stroke-width="3"/>
<path d="M71.5712 22.4997L67.1554 16.6785H67.0265C66.5107 16.6785 65.8518 16.6533 65.0495 16.6029V22.4997H61.3213V6.95848C62.1307 6.77128 63.0368 6.62008 64.0396 6.50488C65.0424 6.38248 65.995 6.32128 66.8975 6.32128C69.383 6.32128 71.2418 6.73888 72.4738 7.57408C73.7129 8.40208 74.3325 9.70168 74.3325 11.4729C74.3325 12.6177 74.0388 13.5825 73.4515 14.3673C72.8641 15.1449 72.0118 15.7281 70.8944 16.1169L75.783 22.4997H71.5712ZM65.0495 13.8597C65.8016 13.9389 66.5143 13.9785 67.1876 13.9785C68.4339 13.9785 69.3472 13.7805 69.9274 13.3845C70.5076 12.9885 70.7977 12.3549 70.7977 11.4837C70.7977 10.5981 70.5111 9.96088 69.9381 9.57207C69.3723 9.18327 68.4698 8.98888 67.2306 8.98888C66.5286 8.98888 65.8016 9.05728 65.0495 9.19408V13.8597ZM88.7089 22.4997L87.194 18.2661H80.3392L78.8243 22.4997H75.1175L81.0483 6.51568H86.5171L92.4588 22.4997H88.7089ZM81.3599 15.4041H86.1733L83.7666 8.67568L81.3599 15.4041ZM108.059 14.7237V22.2837C106.433 22.5501 104.919 22.6833 103.515 22.6833C100.127 22.6833 97.591 22.0029 95.9077 20.6421C94.2245 19.2741 93.3793 17.2509 93.3721 14.5725C93.3721 12.8157 93.7589 11.3217 94.5325 10.0905C95.306 8.85208 96.4521 7.91248 97.9706 7.27168C99.4891 6.63088 101.344 6.31048 103.536 6.31048C104.897 6.31048 106.215 6.44728 107.49 6.72088V9.78808C106.294 9.52888 105.069 9.39928 103.815 9.39928C101.602 9.40648 99.9654 9.83488 98.9053 10.6845C97.8524 11.5341 97.326 12.8481 97.326 14.6265C97.3403 17.9529 99.3315 19.6161 103.3 19.6161C103.708 19.6161 104.109 19.6053 104.503 19.5837V14.7237H108.059ZM122.822 8.02768H113.657V13.6761H121.715V15.1881H113.657V22.4997H111.82V6.51568H122.822V8.02768ZM125.581 22.4997V10.7817H127.386V22.4997H125.581ZM126.484 8.23288C126.083 8.23288 125.775 8.13928 125.56 7.95208C125.345 7.76488 125.238 7.49848 125.238 7.15288C125.238 6.80728 125.345 6.54088 125.56 6.35368C125.775 6.15928 126.083 6.06208 126.484 6.06208C126.885 6.06208 127.193 6.15928 127.408 6.35368C127.623 6.54088 127.73 6.80728 127.73 7.15288C127.73 7.49848 127.623 7.76488 127.408 7.95208C127.193 8.13928 126.885 8.23288 126.484 8.23288ZM134.495 22.7049C133.062 22.7049 131.794 22.5357 130.691 22.1973V20.8149C131.343 21.0021 131.977 21.1389 132.593 21.2253C133.209 21.3045 133.85 21.3441 134.516 21.3441C135.676 21.3441 136.514 21.1785 137.03 20.8473C137.546 20.5089 137.804 20.0157 137.804 19.3677C137.804 19.0221 137.743 18.7341 137.621 18.5037C137.499 18.2733 137.292 18.0825 136.998 17.9313C136.704 17.7729 136.3 17.6469 135.784 17.5533L133.807 17.2293C132.639 17.0349 131.794 16.6749 131.271 16.1493C130.756 15.6237 130.498 14.9181 130.498 14.0325C130.498 12.9813 130.924 12.1461 131.776 11.5269C132.629 10.9077 133.925 10.5981 135.666 10.5981C136.805 10.5981 137.883 10.7421 138.9 11.0301V12.4125C137.868 12.1173 136.794 11.9697 135.676 11.9697C134.444 11.9697 133.567 12.1461 133.044 12.4989C132.521 12.8517 132.26 13.3413 132.26 13.9677C132.26 14.4429 132.403 14.8317 132.69 15.1341C132.983 15.4365 133.492 15.6525 134.215 15.7821L136.192 16.1061C137.367 16.3005 138.223 16.6461 138.76 17.1429C139.297 17.6325 139.566 18.3345 139.566 19.2489C139.566 20.3361 139.14 21.1857 138.287 21.7977C137.435 22.4025 136.171 22.7049 134.495 22.7049ZM142.391 5.04688H144.196V12.0885H144.292C144.844 11.5989 145.474 11.2281 146.183 10.9761C146.9 10.7241 147.655 10.5981 148.45 10.5981C149.783 10.5981 150.828 10.9653 151.588 11.6997C152.354 12.4269 152.737 13.5681 152.737 15.1233V22.4997H150.932V15.2097C150.932 14.1369 150.678 13.3665 150.169 12.8985C149.661 12.4305 148.937 12.1965 147.999 12.1965C147.29 12.1965 146.602 12.3297 145.936 12.5961C145.27 12.8625 144.69 13.2549 144.196 13.7733V22.4997H142.391V5.04688Z" fill="#1F1F1F"/>
<defs>
<linearGradient id="paint0_linear_989_593" x1="39.9474" y1="3.15039" x2="12.9703" y2="25.9624" gradientUnits="userSpaceOnUse">
<stop stop-color="#C558A1"/>
<stop offset="1" stop-color="#7A4BA3"/>
</linearGradient>
</defs>
</svg>
