<svg width="60" height="60" viewBox="0 0 60 60" fill="none" xmlns="http://www.w3.org/2000/svg">
<circle cx="30" cy="30" r="30" fill="#1B1C1D"/>
<g clip-path="url(#clip0_384_7293)">
<mask id="mask0_384_7293" style="mask-type:luminance" maskUnits="userSpaceOnUse" x="18" y="18" width="24" height="24">
<path d="M18 18H42V42H18V18Z" fill="white"/>
</mask>
<g mask="url(#mask0_384_7293)">
<path d="M25 23.5C25 20.7386 27.2386 18.5 30 18.5C32.7614 18.5 35 20.7386 35 23.5V29C35 31.7614 32.7614 34 30 34C27.2386 34 25 31.7614 25 29V23.5Z" fill="white"/>
<path d="M30.006 36C30.004 36 30.002 36 30 36C29.998 36 29.996 36 29.994 36C27.0608 35.9972 24.5476 34.19 23.5092 31.6248C23.302 31.1129 22.719 30.8659 22.2071 31.0731C21.6951 31.2803 21.4481 31.8633 21.6554 32.3752C22.8703 35.3766 25.6586 37.5754 29 37.945V41C29 41.5523 29.4477 42 30 42C30.5523 42 31 41.5523 31 41V37.9452C34.3421 37.576 37.1311 35.377 38.3462 32.3752C38.5534 31.8633 38.3064 31.2803 37.7945 31.0731C37.2825 30.8659 36.6995 31.1129 36.4923 31.6248C35.4538 34.1905 32.9399 35.9979 30.006 36Z" fill="white"/>
</g>
</g>
<defs>
<clipPath id="clip0_384_7293">
<rect width="24" height="24" fill="white" transform="translate(18 18)"/>
</clipPath>
</defs>
</svg>
