<svg width="60" height="60" viewBox="0 0 60 60" fill="none" xmlns="http://www.w3.org/2000/svg">
<circle cx="30" cy="30" r="30" fill="#1B1C1D"/>
<path d="M22 30C22 26.7208 22 25.0812 22.8138 23.9189C23.1149 23.4889 23.4889 23.1149 23.9189 22.8138C25.0812 22 26.7208 22 30 22C33.2792 22 34.9188 22 36.0811 22.8138C36.5111 23.1149 36.8851 23.4889 37.1862 23.9189C38 25.0812 38 26.7208 38 30C38 33.2792 38 34.9188 37.1862 36.0811C36.8851 36.5111 36.5111 36.8851 36.0811 37.1862C34.9188 38 33.2792 38 30 38C26.7208 38 25.0812 38 23.9189 37.1862C23.4889 36.8851 23.1149 36.5111 22.8138 36.0811C22 34.9188 22 33.2792 22 30Z" fill="white" stroke="white" stroke-width="1.5"/>
</svg>
