<svg width="120" height="120" viewBox="0 0 120 120" fill="none" xmlns="http://www.w3.org/2000/svg">
<path d="M49.8518 27.8865L52.863 36.249C56.208 45.5302 63.5168 52.839 72.798 56.184L81.1605 59.1952C81.9143 59.469 81.9143 60.5377 81.1605 60.8077L72.798 63.819C63.5168 67.164 56.208 74.4727 52.863 83.754L49.8518 92.1165C49.578 92.8702 48.5093 92.8702 48.2393 92.1165L45.228 83.754C41.883 74.4727 34.5743 67.164 25.293 63.819L16.9305 60.8077C16.1768 60.534 16.1768 59.4652 16.9305 59.1952L25.293 56.184C34.5743 52.839 41.883 45.5302 45.228 36.249L48.2393 27.8865C48.5093 27.129 49.578 27.129 49.8518 27.8865Z" fill="url(#paint0_linear_989_1011)"/>
<path d="M87.4945 7.78969L89.0208 12.0234C90.7158 16.7222 94.417 20.4234 99.1158 22.1184L103.35 23.6447C103.732 23.7834 103.732 24.3234 103.35 24.4622L99.1158 25.9884C94.417 27.6834 90.7158 31.3847 89.0208 36.0834L87.4945 40.3172C87.3558 40.6997 86.8158 40.6997 86.677 40.3172L85.1508 36.0834C83.4558 31.3847 79.7545 27.6834 75.0558 25.9884L70.822 24.4622C70.4395 24.3234 70.4395 23.7834 70.822 23.6447L75.0558 22.1184C79.7545 20.4234 83.4558 16.7222 85.1508 12.0234L86.677 7.78969C86.8158 7.40344 87.3595 7.40344 87.4945 7.78969Z" fill="url(#paint1_linear_989_1011)"/>
<path d="M87.4945 79.6892L89.0208 83.923C90.7158 88.6217 94.417 92.323 99.1158 94.018L103.35 95.5442C103.732 95.683 103.732 96.223 103.35 96.3617L99.1158 97.888C94.417 99.583 90.7158 103.284 89.0208 107.983L87.4945 112.217C87.3558 112.599 86.8158 112.599 86.677 112.217L85.1508 107.983C83.4558 103.284 79.7545 99.583 75.0558 97.888L70.822 96.3617C70.4395 96.223 70.4395 95.683 70.822 95.5442L75.0558 94.018C79.7545 92.323 83.4558 88.6217 85.1508 83.923L86.677 79.6892C86.8158 79.3067 87.3595 79.3067 87.4945 79.6892Z" fill="url(#paint2_linear_989_1011)"/>
<defs>
<linearGradient id="paint0_linear_989_1011" x1="49.0455" y1="27.3184" x2="49.0455" y2="92.6818" gradientUnits="userSpaceOnUse">
<stop stop-color="#7A4BA3"/>
<stop offset="1" stop-color="#C258A1"/>
</linearGradient>
<linearGradient id="paint1_linear_989_1011" x1="87.0858" y1="7.5" x2="87.0858" y2="40.6041" gradientUnits="userSpaceOnUse">
<stop stop-color="#7A4BA3"/>
<stop offset="1" stop-color="#C258A1"/>
</linearGradient>
<linearGradient id="paint2_linear_989_1011" x1="87.0858" y1="79.4023" x2="87.0858" y2="112.504" gradientUnits="userSpaceOnUse">
<stop stop-color="#7A4BA3"/>
<stop offset="1" stop-color="#C258A1"/>
</linearGradient>
</defs>
</svg>
