<svg width="58" height="56" viewBox="0 0 58 56" fill="none" xmlns="http://www.w3.org/2000/svg">
<g clip-path="url(#clip0_508_10351)">
<path d="M51.625 9.625H22.75C22.0238 9.625 20.895 9.15775 20.3814 8.64412L16.7309 4.99362C15.8935 4.15625 14.3089 3.5 13.125 3.5H4.375C1.96263 3.5 0 5.46263 0 7.875V48.125C0 50.5374 1.96263 52.5 4.375 52.5H51.625C54.0374 52.5 56 50.5374 56 48.125V14C56 11.5876 54.0374 9.625 51.625 9.625Z" fill="#C077F8"/>
<path d="M51.625 15.75H4.375C1.96263 15.75 0 17.7126 0 20.125V48.125C0 50.5374 1.96263 52.5 4.375 52.5H51.625C54.0374 52.5 56 50.5374 56 48.125V20.125C56 17.7126 54.0374 15.75 51.625 15.75Z" fill="url(#paint0_linear_508_10351)"/>
</g>
<path d="M46.3748 55.7496C52.657 55.7496 57.7496 50.657 57.7496 44.3748C57.7496 38.0927 52.657 33 46.3748 33C40.0927 33 35 38.0927 35 44.3748C35 50.657 40.0927 55.7496 46.3748 55.7496Z" fill="url(#paint1_linear_508_10351)"/>
<path d="M49.8749 42.6249H48.1249V40.875C48.1249 39.909 47.3409 39.125 46.3749 39.125C45.4081 39.125 44.6249 39.909 44.6249 40.875V42.6249H42.875C41.9081 42.6249 41.125 43.4089 41.125 44.3749C41.125 45.3409 41.9081 46.1249 42.875 46.1249H44.6249V47.8749C44.6249 48.8408 45.4081 49.6248 46.3749 49.6248C47.3409 49.6248 48.1249 48.8408 48.1249 47.8749V46.1249H49.8749C50.8408 46.1249 51.6248 45.3409 51.6248 44.3749C51.6248 43.4089 50.8408 42.6249 49.8749 42.6249Z" fill="url(#paint2_linear_508_10351)"/>
<defs>
<linearGradient id="paint0_linear_508_10351" x1="2.293" y1="47.5388" x2="23.2417" y2="11.0567" gradientUnits="userSpaceOnUse">
<stop stop-color="#EBB3F4"/>
<stop offset="1" stop-color="#E1D1F8"/>
</linearGradient>
<linearGradient id="paint1_linear_508_10351" x1="38.3346" y1="52.4142" x2="54.4142" y2="36.3354" gradientUnits="userSpaceOnUse">
<stop stop-color="#5D00CE"/>
<stop offset="1" stop-color="#BA24FF"/>
</linearGradient>
<linearGradient id="paint2_linear_508_10351" x1="43.3868" y1="47.3621" x2="49.3621" y2="41.3877" gradientUnits="userSpaceOnUse">
<stop stop-color="#B3D8F4"/>
<stop offset="1" stop-color="#D1E7F8"/>
</linearGradient>
<clipPath id="clip0_508_10351">
<rect width="56" height="56" fill="white"/>
</clipPath>
</defs>
</svg>
