<svg width="16" height="16" viewBox="0 0 16 16" fill="none" xmlns="http://www.w3.org/2000/svg">
<g clip-path="url(#clip0_507_8339)">
<path d="M6.62345 10.3332C6.56393 10.1025 6.44367 9.89191 6.27519 9.72343C6.10671 9.55495 5.89616 9.4347 5.66545 9.37518L1.57545 8.32051C1.50567 8.30071 1.44425 8.25868 1.40052 8.20081C1.35679 8.14294 1.33313 8.07238 1.33313 7.99984C1.33313 7.92731 1.35679 7.85675 1.40052 7.79888C1.44425 7.74101 1.50567 7.69898 1.57545 7.67918L5.66545 6.62384C5.89608 6.56438 6.10658 6.44423 6.27505 6.27587C6.44352 6.10751 6.56383 5.8971 6.62345 5.66651L7.67812 1.57651C7.69772 1.50645 7.73971 1.44474 7.79766 1.40077C7.85562 1.35681 7.92637 1.33301 7.99912 1.33301C8.07186 1.33301 8.14261 1.35681 8.20057 1.40077C8.25853 1.44474 8.30051 1.50645 8.32012 1.57651L9.37412 5.66651C9.43364 5.89722 9.55389 6.10777 9.72237 6.27626C9.89085 6.44474 10.1014 6.56499 10.3321 6.62451L14.4221 7.67851C14.4925 7.69791 14.5545 7.73985 14.5987 7.7979C14.6429 7.85594 14.6668 7.92688 14.6668 7.99984C14.6668 8.0728 14.6429 8.14375 14.5987 8.20179C14.5545 8.25984 14.4925 8.30178 14.4221 8.32118L10.3321 9.37518C10.1014 9.4347 9.89085 9.55495 9.72237 9.72343C9.55389 9.89191 9.43364 10.1025 9.37412 10.3332L8.31945 14.4232C8.29984 14.4932 8.25786 14.555 8.1999 14.5989C8.14195 14.6429 8.0712 14.6667 7.99845 14.6667C7.9257 14.6667 7.85495 14.6429 7.797 14.5989C7.73904 14.555 7.69705 14.4932 7.67745 14.4232L6.62345 10.3332Z" stroke="#704C9B" stroke-width="1.33333" stroke-linecap="round" stroke-linejoin="round"/>
<path d="M13.3322 2V4.66667" stroke="#704C9B" stroke-width="1.33333" stroke-linecap="round" stroke-linejoin="round"/>
<path d="M14.6654 3.33301H11.9988" stroke="#704C9B" stroke-width="1.33333" stroke-linecap="round" stroke-linejoin="round"/>
<path d="M2.66547 11.333V12.6663" stroke="#704C9B" stroke-width="1.33333" stroke-linecap="round" stroke-linejoin="round"/>
<path d="M3.33211 12H1.99878" stroke="#704C9B" stroke-width="1.33333" stroke-linecap="round" stroke-linejoin="round"/>
</g>
<defs>
<clipPath id="clip0_507_8339">
<rect width="16" height="16" fill="white"/>
</clipPath>
</defs>
</svg>
