<svg width="60" height="60" viewBox="0 0 60 60" fill="none" xmlns="http://www.w3.org/2000/svg">
<path d="M24.9263 13.9423L26.4319 18.1235C28.1044 22.7641 31.7588 26.4185 36.3994 28.091L40.5806 29.5966C40.9575 29.7335 40.9575 30.2679 40.5806 30.4029L36.3994 31.9085C31.7588 33.581 28.1044 37.2354 26.4319 41.876L24.9263 46.0573C24.7894 46.4341 24.255 46.4341 24.12 46.0573L22.6144 41.876C20.9419 37.2354 17.2875 33.581 12.6469 31.9085L8.46564 30.4029C8.08876 30.266 8.08876 29.7316 8.46564 29.5966L12.6469 28.091C17.2875 26.4185 20.9419 22.7641 22.6144 18.1235L24.12 13.9423C24.255 13.5635 24.7894 13.5635 24.9263 13.9423Z" fill="url(#paint0_linear_1220_3850)"/>
<path d="M43.7475 3.89484L44.5106 6.01172C45.3581 8.36109 47.2088 10.2117 49.5581 11.0592L51.675 11.8223C51.8663 11.8917 51.8663 12.1617 51.675 12.2311L49.5581 12.9942C47.2088 13.8417 45.3581 15.6923 44.5106 18.0417L43.7475 20.1586C43.6781 20.3498 43.4081 20.3498 43.3388 20.1586L42.5756 18.0417C41.7281 15.6923 39.8775 13.8417 37.5281 12.9942L35.4113 12.2311C35.22 12.1617 35.22 11.8917 35.4113 11.8223L37.5281 11.0592C39.8775 10.2117 41.7281 8.36109 42.5756 6.01172L43.3388 3.89484C43.4081 3.70172 43.68 3.70172 43.7475 3.89484Z" fill="#C077F8"/>
<path d="M43.7475 39.8446L44.5106 41.9615C45.3581 44.3109 47.2088 46.1615 49.5581 47.009L51.675 47.7721C51.8663 47.8415 51.8663 48.1115 51.675 48.1809L49.5581 48.944C47.2088 49.7915 45.3581 51.6421 44.5106 53.9915L43.7475 56.1084C43.6781 56.2996 43.4081 56.2996 43.3388 56.1084L42.5756 53.9915C41.7281 51.6421 39.8775 49.7915 37.5281 48.944L35.4113 48.1809C35.22 48.1115 35.22 47.8415 35.4113 47.7721L37.5281 47.009C39.8775 46.1615 41.7281 44.3109 42.5756 41.9615L43.3388 39.8446C43.4081 39.6534 43.68 39.6534 43.7475 39.8446Z" fill="url(#paint1_linear_1220_3850)"/>
<defs>
<linearGradient id="paint0_linear_1220_3850" x1="9.52113" y1="41.9279" x2="30.9008" y2="17.495" gradientUnits="userSpaceOnUse">
<stop stop-color="#EBB3F4"/>
<stop offset="1" stop-color="#E1D1F8"/>
</linearGradient>
<linearGradient id="paint1_linear_1220_3850" x1="37.6938" y1="53.8252" x2="49.3919" y2="42.1277" gradientUnits="userSpaceOnUse">
<stop stop-color="#5D00CE"/>
<stop offset="1" stop-color="#BA24FF"/>
</linearGradient>
</defs>
</svg>
