<svg width="20" height="20" viewBox="0 0 20 20" fill="none" xmlns="http://www.w3.org/2000/svg">
<path d="M7.29167 2.5C7.78895 2.5 8.26586 2.69754 8.61749 3.04917C8.96912 3.40081 9.16667 3.87772 9.16667 4.375V7.29167C9.16667 7.78895 8.96912 8.26586 8.61749 8.61749C8.26586 8.96912 7.78895 9.16667 7.29167 9.16667H4.375C3.87772 9.16667 3.40081 8.96912 3.04917 8.61749C2.69754 8.26586 2.5 7.78895 2.5 7.29167V4.375C2.5 3.87772 2.69754 3.40081 3.04917 3.04917C3.40081 2.69754 3.87772 2.5 4.375 2.5H7.29167Z" fill="#704C9B"/>
<path d="M7.29199 10.833C7.78916 10.8331 8.26563 11.0313 8.61719 11.3828C8.96874 11.7344 9.16691 12.2108 9.16699 12.708V15.625C9.16699 16.1223 8.96882 16.5995 8.61719 16.9512C8.26566 17.3025 7.789 17.4999 7.29199 17.5H4.375C3.87772 17.5 3.40046 17.3028 3.04883 16.9512C2.6972 16.5995 2.5 16.1223 2.5 15.625V12.708C2.50009 12.211 2.69748 11.7343 3.04883 11.3828C3.40046 11.0312 3.87772 10.833 4.375 10.833H7.29199ZM15.6279 10.832C16.1249 10.8321 16.6016 11.0295 16.9531 11.3809C17.3048 11.7325 17.5029 12.2098 17.5029 12.707V15.624C17.5028 16.1212 17.3047 16.5977 16.9531 16.9492C16.6016 17.3008 16.1251 17.4989 15.6279 17.499H12.7109C12.2137 17.499 11.7364 17.3008 11.3848 16.9492C11.0334 16.5977 10.836 16.121 10.8359 15.624V12.707C10.8359 12.2098 11.0331 11.7325 11.3848 11.3809C11.7364 11.0292 12.2137 10.832 12.7109 10.832H15.6279ZM15.625 2.5C16.1223 2.5 16.5995 2.6972 16.9512 3.04883C17.3028 3.40046 17.5 3.87772 17.5 4.375V7.29199C17.4999 7.789 17.3025 8.26566 16.9512 8.61719C16.5995 8.96882 16.1223 9.16699 15.625 9.16699H12.708C12.2108 9.16691 11.7344 8.96874 11.3828 8.61719C11.0313 8.26563 10.8331 7.78916 10.833 7.29199V4.375C10.833 3.87772 11.0312 3.40046 11.3828 3.04883C11.7343 2.69748 12.211 2.50009 12.708 2.5H15.625Z" fill="url(#paint0_linear_507_7600)"/>
<defs>
<linearGradient id="paint0_linear_507_7600" x1="22.5039" y1="-3" x2="-1.49619" y2="20.5047" gradientUnits="userSpaceOnUse">
<stop stop-color="#DE40F9"/>
<stop offset="1" stop-color="#7A4BA3"/>
</linearGradient>
</defs>
</svg>
