<svg width="20" height="20" viewBox="0 0 20 20" fill="none" xmlns="http://www.w3.org/2000/svg">
<path d="M15.8333 8.33398C16.4964 8.33398 17.1323 8.59738 17.6011 9.06622C18.0699 9.53506 18.3333 10.1709 18.3333 10.834V13.334C18.3333 13.997 18.0699 14.6329 17.6011 15.1018C17.1323 15.5706 16.4964 15.834 15.8333 15.834V16.639C15.8333 17.5223 14.8033 18.0048 14.125 17.439L12.1983 15.834H10C9.33696 15.834 8.70107 15.5706 8.23223 15.1018C7.76339 14.6329 7.5 13.997 7.5 13.334V10.834C7.5 10.1709 7.76339 9.53506 8.23223 9.06622C8.70107 8.59738 9.33696 8.33398 10 8.33398H15.8333Z" fill="url(#paint0_linear_507_8295)"/>
<path d="M13.3327 3.33398C13.9957 3.33398 14.6316 3.59738 15.1005 4.06622C15.5693 4.53506 15.8327 5.17094 15.8327 5.83398V6.66732H9.16602C8.28196 6.66732 7.43411 7.01851 6.80899 7.64363C6.18387 8.26875 5.83268 9.1166 5.83268 10.0007V13.334C5.83268 14.204 6.16602 14.9973 6.71268 15.5907L5.83268 16.2507C5.14602 16.7657 4.16602 16.2757 4.16602 15.4173V14.1673C3.50297 14.1673 2.86709 13.9039 2.39825 13.4351C1.92941 12.9662 1.66602 12.3304 1.66602 11.6673V5.83398C1.66602 5.17094 1.92941 4.53506 2.39825 4.06622C2.86709 3.59738 3.50297 3.33398 4.16602 3.33398H13.3327Z" fill="#704C9B"/>
<defs>
<linearGradient id="paint0_linear_507_8295" x1="12.9167" y1="8.33398" x2="12.9167" y2="17.6827" gradientUnits="userSpaceOnUse">
<stop stop-color="#E53FFF"/>
<stop offset="1" stop-color="#704C9B"/>
</linearGradient>
</defs>
</svg>
