<svg width="20" height="20" viewBox="0 0 20 20" fill="none" xmlns="http://www.w3.org/2000/svg">
<path d="M1.6665 6.66667C1.6665 6.66667 5.39746 2.5 9.99984 2.5C14.6022 2.5 18.3332 6.66667 18.3332 6.66667" stroke="#4F607D" stroke-width="1.5" stroke-linecap="round"/>
<path d="M17.9532 10.8715C18.2065 11.2267 18.3332 11.4044 18.3332 11.6673C18.3332 11.9302 18.2065 12.1079 17.9532 12.4632C16.8148 14.0595 13.9075 17.5007 9.99984 17.5007C6.09215 17.5007 3.18492 14.0595 2.04654 12.4632C1.79318 12.1079 1.6665 11.9302 1.6665 11.6673C1.6665 11.4044 1.79318 11.2267 2.04654 10.8715C3.18492 9.27515 6.09215 5.83398 9.99984 5.83398C13.9075 5.83398 16.8148 9.27515 17.9532 10.8715Z" stroke="#4F607D" stroke-width="1.5" stroke-linecap="round"/>
<path d="M12.5 11.666C12.5 10.2853 11.3807 9.16602 10 9.16602C8.61925 9.16602 7.5 10.2853 7.5 11.666C7.5 13.0468 8.61925 14.166 10 14.166C11.3807 14.166 12.5 13.0468 12.5 11.666Z" stroke="#4F607D" stroke-width="1.5" stroke-linecap="round"/>
</svg>
