<svg width="20" height="20" viewBox="0 0 20 20" fill="none" xmlns="http://www.w3.org/2000/svg">
<g clip-path="url(#clip0_1109_1086)">
<path d="M7.5 12.5C7.5 10.143 7.5 8.9645 8.23223 8.23223C8.9645 7.5 10.143 7.5 12.5 7.5H13.3333C15.6903 7.5 16.8688 7.5 17.6011 8.23223C18.3333 8.9645 18.3333 10.143 18.3333 12.5V13.3333C18.3333 15.6903 18.3333 16.8688 17.6011 17.6011C16.8688 18.3333 15.6903 18.3333 13.3333 18.3333H12.5C10.143 18.3333 8.9645 18.3333 8.23223 17.6011C7.5 16.8688 7.5 15.6903 7.5 13.3333V12.5Z" stroke="#8293B0" stroke-width="1.5" stroke-linecap="round" stroke-linejoin="round"/>
<path d="M14.1679 7.5013C14.1659 5.03706 14.1286 3.76064 13.4113 2.88666C13.2728 2.71788 13.1181 2.56312 12.9493 2.4246C12.0273 1.66797 10.6576 1.66797 7.91797 1.66797C5.1784 1.66797 3.80862 1.66797 2.88666 2.4246C2.71788 2.56311 2.56312 2.71788 2.4246 2.88666C1.66797 3.80862 1.66797 5.1784 1.66797 7.91797C1.66797 10.6576 1.66797 12.0273 2.4246 12.9493C2.56311 13.1181 2.71788 13.2728 2.88666 13.4113C3.76064 14.1286 5.03706 14.1659 7.5013 14.1679" stroke="#8293B0" stroke-width="1.5" stroke-linecap="round" stroke-linejoin="round"/>
</g>
<defs>
<clipPath id="clip0_1109_1086">
<rect width="20" height="20" fill="white"/>
</clipPath>
</defs>
</svg>
