<svg width="16" height="16" viewBox="0 0 16 16" fill="none" xmlns="http://www.w3.org/2000/svg">
<g clip-path="url(#clip0_507_8080)">
<path d="M6 10C6 8.1144 6 7.1716 6.58579 6.58579C7.1716 6 8.1144 6 10 6H10.6667C12.5523 6 13.4951 6 14.0809 6.58579C14.6667 7.1716 14.6667 8.1144 14.6667 10V10.6667C14.6667 12.5523 14.6667 13.4951 14.0809 14.0809C13.4951 14.6667 12.5523 14.6667 10.6667 14.6667H10C8.1144 14.6667 7.1716 14.6667 6.58579 14.0809C6 13.4951 6 12.5523 6 10.6667V10Z" stroke="white" stroke-width="1.5" stroke-linecap="round" stroke-linejoin="round"/>
<path d="M11.3339 5.99967C11.3323 4.02828 11.3025 3.00715 10.7287 2.30796C10.6179 2.17293 10.4941 2.04913 10.3591 1.93831C9.62145 1.33301 8.52565 1.33301 6.33398 1.33301C4.14233 1.33301 3.0465 1.33301 2.30894 1.93831C2.17391 2.04912 2.0501 2.17293 1.93929 2.30796C1.33398 3.04553 1.33398 4.14135 1.33398 6.33301C1.33398 8.52467 1.33398 9.62047 1.93929 10.3581C2.0501 10.4931 2.17391 10.6169 2.30894 10.7277C3.00812 11.3015 4.02926 11.3313 6.00065 11.3329" stroke="white" stroke-width="1.5" stroke-linecap="round" stroke-linejoin="round"/>
</g>
<defs>
<clipPath id="clip0_507_8080">
<rect width="16" height="16" fill="white"/>
</clipPath>
</defs>
</svg>
