<svg width="34" height="30" viewBox="0 0 34 30" fill="none" xmlns="http://www.w3.org/2000/svg">
<path d="M14.3586 1.43713L0.38536 25.6378C0.132954 26.0748 4.6715e-05 26.5706 1.23125e-08 27.0752C-4.66904e-05 27.5799 0.132769 28.0757 0.385094 28.5128C0.63742 28.9499 1.00036 29.3128 1.43743 29.5651C1.87451 29.8175 2.3703 29.9503 2.87499 29.9503H30.8192C31.3239 29.9503 31.8197 29.8175 32.2568 29.5651C32.6939 29.3128 33.0568 28.9499 33.3091 28.5128C33.5615 28.0757 33.6943 27.5799 33.6942 27.0752C33.6942 26.5706 33.5613 26.0748 33.3089 25.6378L19.3371 1.43713C19.0848 1.00019 18.722 0.637346 18.285 0.385077C17.8481 0.132808 17.3524 0 16.8479 0C16.3433 0 15.8477 0.132808 15.4107 0.385077C14.9737 0.637346 14.6109 1.00019 14.3586 1.43713Z" fill="#EE404C"/>
<path d="M17.0304 8.90137H16.6659C15.7685 8.90137 15.041 9.62885 15.041 10.5262V18.2929C15.041 19.1903 15.7685 19.9177 16.6659 19.9177H17.0304C17.9278 19.9177 18.6553 19.1903 18.6553 18.2929V10.5262C18.6553 9.62885 17.9278 8.90137 17.0304 8.90137Z" fill="#FFF7ED"/>
<path d="M16.8481 26.0776C17.8462 26.0776 18.6553 25.2686 18.6553 24.2705C18.6553 23.2725 17.8462 22.4634 16.8481 22.4634C15.8501 22.4634 15.041 23.2725 15.041 24.2705C15.041 25.2686 15.8501 26.0776 16.8481 26.0776Z" fill="#FFF7ED"/>
</svg>
