<svg width="20" height="20" viewBox="0 0 20 20" fill="none" xmlns="http://www.w3.org/2000/svg">
<path d="M9.16667 12.5C5.48477 12.5 2.5 11.3808 2.5 10" stroke="#704C9B" stroke-width="1.5" stroke-linecap="round"/>
<path d="M15.8333 4.16797V9.58464M2.5 4.16797V15.8346C2.5 17.2154 5.48477 18.3346 9.16667 18.3346C9.30658 18.3346 9.4455 18.3331 9.58333 18.3298" stroke="#704C9B" stroke-width="1.5" stroke-linecap="round"/>
<path d="M9.16667 6.66797C12.8486 6.66797 15.8333 5.54868 15.8333 4.16797C15.8333 2.78726 12.8486 1.66797 9.16667 1.66797C5.48477 1.66797 2.5 2.78726 2.5 4.16797C2.5 5.54868 5.48477 6.66797 9.16667 6.66797Z" stroke="#704C9B" stroke-width="1.5" stroke-linecap="round"/>
<path d="M5.83594 6.66797V8.33464" stroke="#704C9B" stroke-width="1.5" stroke-linecap="round"/>
<path d="M5.83594 12.5V14.1667" stroke="#704C9B" stroke-width="1.5" stroke-linecap="round"/>
<path d="M14.1693 13.8902V15.0013M14.1693 15.0013V16.1124M14.1693 15.0013H15.2804M14.1693 15.0013H13.0582M17.5026 15.0013C17.5026 16.8422 16.0102 18.3346 14.1693 18.3346C12.3284 18.3346 10.8359 16.8422 10.8359 15.0013C10.8359 13.1604 12.3284 11.668 14.1693 11.668C16.0102 11.668 17.5026 13.1604 17.5026 15.0013Z" stroke="#704C9B" stroke-width="1.5" stroke-linecap="round"/>
</svg>
