<svg width="20" height="20" viewBox="0 0 20 20" fill="none" xmlns="http://www.w3.org/2000/svg">
<path d="M4.43606 8.0678C6.44746 4.50869 7.45316 2.72912 8.83322 2.27104C9.59239 2.01903 10.4102 2.01903 11.1694 2.27104C12.5495 2.72912 13.5551 4.50869 15.5666 8.0678C17.578 11.6269 18.5836 13.4065 18.282 14.8565C18.116 15.6542 17.7071 16.3777 17.1138 16.9235C16.0355 17.9154 14.0241 17.9154 10.0013 17.9154C5.97851 17.9154 3.96711 17.9154 2.88877 16.9235C2.29554 16.3777 1.88663 15.6542 1.72066 14.8565C1.41896 13.4065 2.42466 11.6269 4.43606 8.0678Z" stroke="#991F24" stroke-width="1.8"/>
<path d="M9.99219 13.332H9.99969" stroke="#991F24" stroke-width="2" stroke-linecap="round" stroke-linejoin="round"/>
<path d="M10 10.8334V7.5" stroke="#991F24" stroke-width="1.8" stroke-linecap="round" stroke-linejoin="round"/>
</svg>
