<svg width="20" height="20" viewBox="0 0 20 20" fill="none" xmlns="http://www.w3.org/2000/svg">
<path d="M1.66406 6.66667C1.66406 6.66667 5.39502 2.5 9.9974 2.5C14.5997 2.5 18.3307 6.66667 18.3307 6.66667" stroke="#4F607D" stroke-width="1.5" stroke-linecap="round"/>
<path d="M17.9507 10.8695C18.2041 11.2248 18.3307 11.4024 18.3307 11.6654C18.3307 11.9283 18.2041 12.1059 17.9507 12.4612C16.8123 14.0575 13.9051 17.4987 9.9974 17.4987C6.08971 17.4987 3.18248 14.0575 2.0441 12.4612C1.79074 12.1059 1.66406 11.9283 1.66406 11.6654C1.66406 11.4024 1.79074 11.2248 2.0441 10.8695C3.18248 9.2732 6.08971 5.83203 9.9974 5.83203C13.9051 5.83203 16.8123 9.2732 17.9507 10.8695Z" stroke="#4F607D" stroke-width="1.5" stroke-linecap="round"/>
<path d="M12.5 11.668C12.5 10.2872 11.3807 9.16797 10 9.16797C8.61925 9.16797 7.5 10.2872 7.5 11.668C7.5 13.0487 8.61925 14.168 10 14.168C11.3807 14.168 12.5 13.0487 12.5 11.668Z" stroke="#4F607D" stroke-width="1.5" stroke-linecap="round"/>
</svg>
