<svg width="10" height="13" viewBox="0 0 10 13" fill="none" xmlns="http://www.w3.org/2000/svg">
<path d="M1.20517 12.6667C0.868389 12.6667 0.583333 12.55 0.35 12.3167C0.116667 12.0833 0 11.7983 0 11.4615V1.20517C0 0.868389 0.116667 0.583333 0.35 0.35C0.583333 0.116667 0.868389 0 1.20517 0H6.5L10 3.5V11.4615C10 11.7983 9.88333 12.0833 9.65 12.3167C9.41667 12.55 9.13161 12.6667 8.79483 12.6667H1.20517ZM6 4V1H1.20517C1.15383 1 1.10683 1.02139 1.06417 1.06417C1.02139 1.10683 1 1.15383 1 1.20517V11.4615C1 11.5128 1.02139 11.5598 1.06417 11.6025C1.10683 11.6453 1.15383 11.6667 1.20517 11.6667H8.79483C8.84617 11.6667 8.89317 11.6453 8.93583 11.6025C8.97861 11.5598 9 11.5128 9 11.4615V4H6Z" fill="#6F6F6E"/>
</svg>
