<svg width="32" height="25" viewBox="0 0 32 25" fill="none" xmlns="http://www.w3.org/2000/svg">
<path d="M29.4998 1.5H12.1998C12.1056 1.49998 12.0133 1.52658 11.9335 1.57673C11.8538 1.62688 11.7898 1.69854 11.749 1.78345C11.7082 1.86837 11.6923 1.96308 11.7029 2.05668C11.7136 2.15028 11.7505 2.23896 11.8094 2.3125L14.0094 5.0625C14.2428 5.35563 14.5395 5.59221 14.8773 5.75456C15.215 5.9169 15.5851 6.0008 15.9598 6H31.4998C31.6324 6 31.7596 5.94732 31.8533 5.85355C31.9471 5.75979 31.9998 5.63261 31.9998 5.5V4C31.999 3.3372 31.7354 2.70177 31.2667 2.2331C30.798 1.76442 30.1626 1.50078 29.4998 1.5Z" fill="#FFB125"/>
<path d="M32 5H15.96C15.7354 5 15.5138 4.94949 15.3114 4.85222C15.109 4.75495 14.931 4.6134 14.7907 4.43805L12.29 1.312C11.963 0.901964 11.5477 0.571021 11.075 0.343851C10.6023 0.116682 10.0844 -0.000855134 9.56 4.68354e-06H2.5C1.83696 4.68354e-06 1.20107 0.263397 0.732233 0.732238C0.263392 1.20108 0 1.83696 0 2.5L0 22.5C0 23.163 0.263392 23.7989 0.732233 24.2678C1.20107 24.7366 1.83696 25 2.5 25H29.5C30.163 25 30.7989 24.7366 31.2678 24.2678C31.7366 23.7989 32 23.163 32 22.5V5Z" fill="#FCD354"/>
</svg>
