<svg width="28" height="28" viewBox="0 0 28 28" fill="none" xmlns="http://www.w3.org/2000/svg">
<path fill-rule="evenodd" clip-rule="evenodd" d="M15.9087 4.66691C16.3216 4.25397 16.8743 4.01086 17.4577 3.98559C18.0411 3.96031 18.6128 4.15472 19.0598 4.53041L19.208 4.66691L23.3333 8.79224C23.726 9.18501 23.9657 9.70495 24.0093 10.2586C24.0529 10.8123 23.8976 11.3633 23.5713 11.8127L15.1667 20.2501V5.40891L15.9087 4.66691ZM8.75 17.5002C8.28587 17.5002 7.84075 17.6846 7.51256 18.0128C7.18437 18.341 7 18.7861 7 19.2502C7 19.7144 7.18437 20.1595 7.51256 20.4877C7.84075 20.8159 8.28587 21.0002 8.75 21.0002C9.21413 21.0002 9.65925 20.8159 9.98744 20.4877C10.3156 20.1595 10.5 19.7144 10.5 19.2502C10.5 18.7861 10.3156 18.341 9.98744 18.0128C9.65925 17.6846 9.21413 17.5002 8.75 17.5002Z" fill="#704C9B"/>
<path d="M11.667 3.5C12.2857 3.50009 12.8789 3.74609 13.3164 4.18359C13.7539 4.6211 13.9999 5.21429 14 5.83301V22.167C13.9999 22.7857 13.7539 23.3789 13.3164 23.8164C12.8789 24.2539 12.2857 24.4999 11.667 24.5H5.83301C5.21429 24.4999 4.6211 24.2539 4.18359 23.8164C3.74609 23.3789 3.50009 22.7857 3.5 22.167V5.83301C3.50009 5.21429 3.74609 4.6211 4.18359 4.18359C4.6211 3.74609 5.21429 3.50009 5.83301 3.5H11.667ZM22.9365 14.1299C23.7893 14.4285 24.4184 15.2078 24.4932 16.1445L24.5 22.167C24.5002 22.7555 24.278 23.3223 23.8779 23.7539C23.4777 24.1855 22.9288 24.45 22.3418 24.4941L22.167 24.5H15.167V21.8984L22.9365 14.1299Z" fill="url(#paint0_linear_1201_1338)"/>
<defs>
<linearGradient id="paint0_linear_1201_1338" x1="14" y1="3.5" x2="14" y2="24.5" gradientUnits="userSpaceOnUse">
<stop stop-color="#B245D3"/>
<stop offset="1" stop-color="#704C9B"/>
</linearGradient>
</defs>
</svg>
