<svg width="28" height="28" viewBox="0 0 28 28" fill="none" xmlns="http://www.w3.org/2000/svg">
<path d="M22.1641 8.16797C22.7829 8.16797 23.3769 8.41398 23.8145 8.85156C24.2518 9.28904 24.497 9.88241 24.4971 10.501V22.168C24.4971 22.7868 24.252 23.3808 23.8145 23.8184C23.3769 24.2559 22.7829 24.501 22.1641 24.501H17.4971C16.8785 24.5009 16.2851 24.2557 15.8477 23.8184C15.4101 23.3808 15.1641 22.7868 15.1641 22.168V10.501C15.1641 9.88226 15.4101 9.28907 15.8477 8.85156C16.2852 8.41405 16.8783 8.16805 17.4971 8.16797H22.1641ZM10.5 3.5C11.1188 3.5 11.7128 3.74601 12.1504 4.18359C12.5877 4.62107 12.8329 5.21444 12.833 5.83301V22.167C12.8329 22.7856 12.5877 23.3789 12.1504 23.8164C11.7128 24.254 11.1188 24.5 10.5 24.5H5.83301C5.21429 24.4999 4.6211 24.2539 4.18359 23.8164C3.74609 23.3789 3.50009 22.7857 3.5 22.167V5.83301C3.50009 5.21429 3.74609 4.6211 4.18359 4.18359C4.6211 3.74609 5.21429 3.50009 5.83301 3.5H10.5Z" fill="url(#paint0_linear_1201_1348)"/>
<defs>
<linearGradient id="paint0_linear_1201_1348" x1="13.9985" y1="24.501" x2="13.9985" y2="3.5" gradientUnits="userSpaceOnUse">
<stop stop-color="#774CA1"/>
<stop offset="1" stop-color="#D941F4"/>
</linearGradient>
</defs>
</svg>
