<svg width="28" height="28" viewBox="0 0 28 28" fill="none" xmlns="http://www.w3.org/2000/svg">
<path d="M23.4258 6.9707C23.5817 6.98057 23.7343 7.02192 23.874 7.0918C24.0137 7.16167 24.1378 7.25914 24.2393 7.37793C24.3406 7.49667 24.4177 7.63435 24.4648 7.7832C24.512 7.93217 24.5284 8.08957 24.5137 8.24512C24.499 8.40066 24.4531 8.55194 24.3789 8.68945C23.967 9.51419 23.2118 10.2359 22.4512 10.7422C22.0967 10.98 21.719 11.1823 21.3242 11.3447C21.6707 12.1975 21.9111 13.0899 22.043 14.001H24.5029C24.8121 14.0011 25.1084 14.1242 25.3271 14.3428C25.5459 14.5616 25.6689 14.8585 25.6689 15.168C25.6689 15.4773 25.5459 15.7735 25.3271 15.9922C25.1084 16.2109 24.8122 16.3339 24.5029 16.334H22.1553C22.0919 17.6677 21.7999 18.981 21.292 20.2158C21.9593 20.6008 22.4152 21.2194 22.7021 21.791C23.1093 22.6368 23.3254 23.5618 23.3359 24.501C23.3359 24.8104 23.2129 25.1074 22.9941 25.3262C22.7754 25.5449 22.4783 25.668 22.1689 25.668C21.8598 25.6679 21.5634 25.5447 21.3447 25.3262C21.1259 25.1074 21.0029 24.8104 21.0029 24.501C21.0029 24.0646 20.8847 23.374 20.6152 22.835C20.4636 22.5317 20.3118 22.3582 20.166 22.2637C18.934 23.9972 17.2035 25.2271 15.1689 25.5713V15.168C15.1689 14.8585 15.0459 14.5616 14.8271 14.3428C14.6084 14.1242 14.3121 14.0011 14.0029 14.001C13.6935 14.001 13.3965 14.124 13.1777 14.3428C12.9589 14.5616 12.8359 14.8585 12.8359 15.168V25.5713C10.8013 25.2271 9.07087 23.996 7.83887 22.2646C7.69195 22.358 7.54122 22.5328 7.38965 22.8359C7.14465 23.3574 7.01343 23.9247 7.00293 24.501C7.00293 24.8104 6.87992 25.1074 6.66113 25.3262C6.44234 25.545 6.14536 25.668 5.83594 25.668C5.52652 25.668 5.22953 25.545 5.01074 25.3262C4.79196 25.1074 4.66895 24.8104 4.66895 24.501C4.67931 23.5625 4.89586 22.6377 5.30273 21.792C5.58971 21.218 6.04567 20.6018 6.71289 20.2168C6.20502 18.9816 5.91297 17.668 5.84961 16.334H3.50293C3.19351 16.334 2.89653 16.211 2.67773 15.9922C2.45912 15.7735 2.33602 15.4772 2.33594 15.168C2.33594 14.8585 2.45894 14.5616 2.67773 14.3428C2.89653 14.124 3.19352 14.001 3.50293 14.001H5.96191C6.09374 13.0899 6.33537 12.1975 6.68066 11.3447C6.28578 11.1823 5.90827 10.9801 5.55371 10.7422C4.79427 10.2359 4.03664 9.51421 3.62598 8.68945C3.48782 8.41281 3.46569 8.09219 3.56348 7.79883C3.66125 7.5057 3.8712 7.26342 4.14746 7.125C4.42411 6.98684 4.74473 6.96374 5.03809 7.06152C5.3314 7.15932 5.57351 7.37 5.71191 7.64648C5.88345 7.9883 6.2959 8.43216 6.84766 8.80078C7.41442 9.17862 7.91335 9.33385 8.16895 9.33398H19.8359C20.0914 9.33398 20.5912 9.17878 21.1582 8.80078C21.7108 8.43226 22.1214 7.98819 22.293 7.64648C22.3584 7.50475 22.4519 7.3775 22.5674 7.27246C22.683 7.16741 22.8184 7.08587 22.9658 7.03418C23.1133 6.98249 23.2699 6.96083 23.4258 6.9707ZM13.9961 3.5C15.02 3.5 16.0263 3.76932 16.9131 4.28125C17.7997 4.79311 18.5359 5.52949 19.0479 6.41602L20.0635 8.16602H7.92969L8.94434 6.41602C9.45633 5.52937 10.1934 4.79316 11.0801 4.28125C11.9667 3.76946 12.9724 3.50005 13.9961 3.5Z" fill="url(#paint0_linear_1201_1331)"/>
<defs>
<linearGradient id="paint0_linear_1201_1331" x1="14.0026" y1="6.96875" x2="14.0026" y2="25.6677" gradientUnits="userSpaceOnUse">
<stop stop-color="#B245D3"/>
<stop offset="1" stop-color="#704C9B"/>
</linearGradient>
</defs>
</svg>
