<svg width="28" height="28" viewBox="0 0 28 28" fill="none" xmlns="http://www.w3.org/2000/svg">
<path fill-rule="evenodd" clip-rule="evenodd" d="M21.1927 3.22557L21.4902 3.2629C22.2765 3.3714 23.3172 3.51724 23.9063 4.10757C24.3893 4.5894 24.5748 5.3734 24.6857 6.0734L24.751 6.52374C24.898 7.5854 24.9365 8.97607 24.6857 10.5207C24.191 13.5692 22.5682 17.2069 18.493 20.0232C18.4708 20.2426 18.4697 20.4642 18.4743 20.6859L18.486 21.0172C18.5047 21.5271 18.5233 22.0357 18.381 22.5316C18.1593 23.3016 17.3695 23.8091 16.631 24.1731L16.2693 24.3446L15.8027 24.5499C14.93 24.9209 13.7517 25.3012 13.0132 24.5616C12.5698 24.1194 12.3878 23.4707 12.2397 22.8256L12.1848 22.5841C12.1229 22.2792 12.045 21.9778 11.9515 21.6811C11.8932 21.5107 11.8302 21.3369 11.7625 21.1619C11.6876 21.253 11.6086 21.3406 11.5257 21.4244C11.1232 21.8269 10.5223 22.1081 10.0277 22.3052C9.48751 22.5187 8.87618 22.7054 8.31035 22.8594L8.01985 22.9364L7.46335 23.0752L6.95935 23.1919L6.35618 23.3202L5.97935 23.3937C5.79141 23.4285 5.59782 23.4171 5.41529 23.3604C5.23276 23.3037 5.06676 23.2035 4.93161 23.0683C4.79646 22.9332 4.69621 22.7672 4.63952 22.5846C4.58282 22.4021 4.57138 22.2085 4.60618 22.0206L4.70651 21.5177L4.88618 20.7034L5.03084 20.1084L5.14051 19.6884C5.29451 19.1237 5.48118 18.5124 5.69585 17.9734C5.89185 17.4776 6.17301 16.8767 6.57551 16.4742L6.66885 16.3844L6.59418 16.3541C6.39479 16.2783 6.19283 16.2094 5.98868 16.1476L5.66551 16.0484C4.85584 15.8034 3.99018 15.5397 3.45235 15.0007C2.79901 14.3486 3.01951 13.3557 3.33451 12.5297L3.46284 12.2101L3.66934 11.7434L3.84084 11.3817C4.20485 10.6444 4.71234 9.85457 5.48234 9.6329C5.89068 9.51624 6.31534 9.50924 6.74234 9.5209L6.99901 9.52907C7.33268 9.54074 7.66518 9.55357 7.99068 9.52207C10.807 5.44574 14.4447 3.8229 17.4932 3.32824C18.7161 3.12733 19.9605 3.09279 21.1927 3.22557Z" fill="url(#paint0_linear_1201_1335)"/>
<path fill-rule="evenodd" clip-rule="evenodd" d="M18.1253 9.8766C16.8559 8.6061 14.6859 9.1871 14.2216 10.9219C14.1155 11.3175 14.1153 11.7341 14.2212 12.1297C14.3271 12.5254 14.5353 12.8862 14.8248 13.1759C16.0941 14.4464 18.2641 13.8654 18.7284 12.1306C18.8346 11.735 18.8347 11.3184 18.7288 10.9228C18.623 10.5271 18.4148 10.1663 18.1253 9.8766ZM9.74511 18.0129C9.56156 17.8769 9.34209 17.7977 9.11396 17.7853C8.88582 17.7728 8.65905 17.8277 8.46178 17.9429L8.33345 18.0293L8.22495 18.1261L8.07911 18.3104C7.77578 18.7491 7.60311 19.3558 7.46895 19.9228L7.34295 20.4688L7.28345 20.7173L7.50628 20.6636L7.99395 20.5516C8.66828 20.3941 9.41611 20.1899 9.87578 19.7758C10.0756 19.576 10.1962 19.3105 10.2151 19.0286C10.234 18.7466 10.1499 18.4674 9.97845 18.2428L9.88278 18.1331L9.85478 18.1063L9.74511 18.0129Z" fill="white"/>
<defs>
<linearGradient id="paint0_linear_1201_1335" x1="13.9485" y1="3.14648" x2="13.9485" y2="24.9845" gradientUnits="userSpaceOnUse">
<stop stop-color="#B246D3"/>
<stop offset="1" stop-color="#774CA1"/>
</linearGradient>
</defs>
</svg>
