<svg width="28" height="28" viewBox="0 0 28 28" fill="none" xmlns="http://www.w3.org/2000/svg">
<path d="M17.4999 2.33301C17.8093 2.33301 18.1061 2.45592 18.3249 2.67472C18.5437 2.89351 18.6666 3.19026 18.6666 3.49967V4.66634H19.8333C20.7615 4.66634 21.6518 5.03509 22.3081 5.69147C22.9645 6.34785 23.3333 7.23808 23.3333 8.16634V9.33301H24.4999C24.8093 9.33301 25.1061 9.45592 25.3249 9.67472C25.5437 9.89351 25.6666 10.1903 25.6666 10.4997C25.6666 10.8091 25.5437 11.1058 25.3249 11.3246C25.1061 11.5434 24.8093 11.6663 24.4999 11.6663H23.3333V16.333H24.4999C24.8093 16.333 25.1061 16.4559 25.3249 16.6747C25.5437 16.8935 25.6666 17.1903 25.6666 17.4997C25.6666 17.8091 25.5437 18.1058 25.3249 18.3246C25.1061 18.5434 24.8093 18.6663 24.4999 18.6663H23.3333V19.833C23.3333 20.7613 22.9645 21.6515 22.3081 22.3079C21.6518 22.9643 20.7615 23.333 19.8333 23.333H18.6666V24.4997C18.6666 24.8091 18.5437 25.1058 18.3249 25.3246C18.1061 25.5434 17.8093 25.6663 17.4999 25.6663C17.1905 25.6663 16.8938 25.5434 16.675 25.3246C16.4562 25.1058 16.3333 24.8091 16.3333 24.4997V23.333H11.6666V24.4997C11.6666 24.8091 11.5437 25.1058 11.3249 25.3246C11.1061 25.5434 10.8093 25.6663 10.4999 25.6663C10.1905 25.6663 9.89375 25.5434 9.67496 25.3246C9.45617 25.1058 9.33325 24.8091 9.33325 24.4997V23.333H8.16659C7.23833 23.333 6.34809 22.9643 5.69171 22.3079C5.03533 21.6515 4.66659 20.7613 4.66659 19.833V18.6663H3.49992C3.1905 18.6663 2.89375 18.5434 2.67496 18.3246C2.45617 18.1058 2.33325 17.8091 2.33325 17.4997C2.33325 17.1903 2.45617 16.8935 2.67496 16.6747C2.89375 16.4559 3.1905 16.333 3.49992 16.333H4.66659V11.6663H3.49992C3.1905 11.6663 2.89375 11.5434 2.67496 11.3246C2.45617 11.1058 2.33325 10.8091 2.33325 10.4997C2.33325 10.1903 2.45617 9.89351 2.67496 9.67472C2.89375 9.45592 3.1905 9.33301 3.49992 9.33301H4.66659V8.16634C4.66659 7.23808 5.03533 6.34785 5.69171 5.69147C6.34809 5.03509 7.23833 4.66634 8.16659 4.66634H9.33325V3.49967C9.33325 3.19026 9.45617 2.89351 9.67496 2.67472C9.89375 2.45592 10.1905 2.33301 10.4999 2.33301C10.8093 2.33301 11.1061 2.45592 11.3249 2.67472C11.5437 2.89351 11.6666 3.19026 11.6666 3.49967V4.66634H16.3333V3.49967C16.3333 3.19026 16.4562 2.89351 16.675 2.67472C16.8938 2.45592 17.1905 2.33301 17.4999 2.33301Z" fill="url(#paint0_linear_1201_1352)"/>
<path d="M11.6663 9.83301H16.3333C16.8194 9.83301 17.2853 10.0264 17.6292 10.3701C17.9729 10.7139 18.1662 11.1799 18.1663 11.666V16.333C18.1663 16.8192 17.973 17.2851 17.6292 17.6289C17.2853 17.9727 16.8195 18.166 16.3333 18.166H11.6663C11.1801 18.1659 10.7141 17.9726 10.3704 17.6289C10.0266 17.2851 9.83325 16.8192 9.83325 16.333V11.666C9.83334 11.1799 10.0266 10.7139 10.3704 10.3701C10.7141 10.0264 11.1801 9.83309 11.6663 9.83301Z" fill="#704C9B" stroke="white"/>
<defs>
<linearGradient id="paint0_linear_1201_1352" x1="13.9999" y1="2.33301" x2="13.9999" y2="25.6663" gradientUnits="userSpaceOnUse">
<stop stop-color="#D442F0"/>
<stop offset="1" stop-color="#7D4CA6"/>
</linearGradient>
</defs>
</svg>
