<svg width="20" height="20" viewBox="0 0 20 20" fill="none" xmlns="http://www.w3.org/2000/svg">
<path d="M12.9193 9.16667C12.9193 7.55583 11.6134 6.25 10.0026 6.25C8.39177 6.25 7.08594 7.55583 7.08594 9.16667C7.08594 10.7775 8.39177 12.0833 10.0026 12.0833C11.6134 12.0833 12.9193 10.7775 12.9193 9.16667Z" stroke="#704C9B" stroke-width="1.5" stroke-linecap="round" stroke-linejoin="round"/>
<path d="M12.9061 9.45825C13.1744 9.53958 13.459 9.58333 13.7538 9.58333C15.3646 9.58333 16.6705 8.2775 16.6705 6.66667C16.6705 5.05583 15.3646 3.75 13.7538 3.75C12.2414 3.75 10.9978 4.90117 10.8516 6.37511" stroke="#704C9B" stroke-width="1.5" stroke-linecap="round" stroke-linejoin="round"/>
<path d="M9.15485 6.37511C9.0086 4.90117 7.76504 3.75 6.2526 3.75C4.64177 3.75 3.33594 5.05583 3.33594 6.66667C3.33594 8.2775 4.64177 9.58333 6.2526 9.58333C6.54745 9.58333 6.83206 9.53958 7.10033 9.45825" stroke="#704C9B" stroke-width="1.5" stroke-linecap="round" stroke-linejoin="round"/>
<path d="M18.3333 13.7487C18.3333 11.4475 16.2813 9.58203 13.75 9.58203" stroke="#704C9B" stroke-width="1.5" stroke-linecap="round" stroke-linejoin="round"/>
<path d="M14.5807 16.2487C14.5807 13.9475 12.5287 12.082 9.9974 12.082C7.46609 12.082 5.41406 13.9475 5.41406 16.2487" stroke="#704C9B" stroke-width="1.5" stroke-linecap="round" stroke-linejoin="round"/>
<path d="M6.2474 9.58203C3.71609 9.58203 1.66406 11.4475 1.66406 13.7487" stroke="#704C9B" stroke-width="1.5" stroke-linecap="round" stroke-linejoin="round"/>
</svg>
