<svg width="154" height="27" viewBox="0 0 154 27" fill="none" xmlns="http://www.w3.org/2000/svg">
<g clip-path="url(#clip0_507_5433)">
<path d="M7.74652 5.03974C2.91428 8.66193 -3.85084 17.2789 7.74652 22.7695C22.2432 29.6325 33.4546 1.33898 44.5981 6.85638C53.5129 11.2703 48.0869 16.4445 47.7481 16.4445C47.4094 16.4445 42.8707 19.9435 36.2998 15.671C27.3388 9.84428 19.222 -1.29433 7.74652 5.03974Z" stroke="url(#paint0_linear_507_5433)" stroke-width="3"/>
<path d="M70.5714 22.5002L66.1555 16.679H66.0266C65.5109 16.679 64.8519 16.6538 64.0496 16.6034V22.5002H60.3214V6.95896C61.1308 6.77176 62.0369 6.62056 63.0397 6.50536C64.0425 6.38296 64.9951 6.32176 65.8976 6.32176C68.3831 6.32176 70.2419 6.73936 71.4739 7.57456C72.713 8.40256 73.3326 9.70216 73.3326 11.4734C73.3326 12.6182 73.0389 13.583 72.4516 14.3678C71.8642 15.1454 71.0119 15.7286 69.8945 16.1174L74.7831 22.5002H70.5714ZM64.0496 13.8602C64.8017 13.9394 65.5144 13.979 66.1877 13.979C67.4341 13.979 68.3473 13.781 68.9275 13.385C69.5077 12.989 69.7978 12.3554 69.7978 11.4842C69.7978 10.5986 69.5113 9.96136 68.9382 9.57256C68.3724 9.18376 67.4699 8.98936 66.2307 8.98936C65.5288 8.98936 64.8017 9.05776 64.0496 9.19456V13.8602ZM87.7091 22.5002L86.1941 18.2666H79.3393L77.8244 22.5002H74.1177L80.0485 6.51616H85.5172L91.459 22.5002H87.7091ZM80.36 15.4046H85.1734L82.7667 8.67616L80.36 15.4046ZM107.06 14.7242V22.2842C105.434 22.5506 103.919 22.6838 102.515 22.6838C99.1267 22.6838 96.5911 22.0034 94.9078 20.6426C93.2246 19.2746 92.3794 17.2514 92.3722 14.573C92.3722 12.8162 92.759 11.3222 93.5326 10.091C94.3062 8.85256 95.4522 7.91296 96.9707 7.27216C98.4892 6.63136 100.344 6.31096 102.536 6.31096C103.897 6.31096 105.215 6.44776 106.49 6.72136V9.78856C105.294 9.52936 104.069 9.39976 102.816 9.39976C100.602 9.40696 98.9656 9.83536 97.9055 10.685C96.8525 11.5346 96.3261 12.8486 96.3261 14.627C96.3404 17.9534 98.3317 19.6166 102.3 19.6166C102.708 19.6166 103.109 19.6058 103.503 19.5842V14.7242H107.06ZM121.822 8.02816H112.657V13.6766H120.715V15.1886H112.657V22.5002H110.82V6.51616H121.822V8.02816ZM124.581 22.5002V10.7822H126.387V22.5002H124.581ZM125.484 8.23336C125.083 8.23336 124.775 8.13976 124.56 7.95256C124.345 7.76536 124.238 7.49896 124.238 7.15336C124.238 6.80776 124.345 6.54136 124.56 6.35416C124.775 6.15976 125.083 6.06256 125.484 6.06256C125.885 6.06256 126.193 6.15976 126.408 6.35416C126.623 6.54136 126.73 6.80776 126.73 7.15336C126.73 7.49896 126.623 7.76536 126.408 7.95256C126.193 8.13976 125.885 8.23336 125.484 8.23336ZM133.495 22.7054C132.062 22.7054 130.794 22.5362 129.691 22.1978V20.8154C130.343 21.0026 130.977 21.1394 131.593 21.2258C132.209 21.305 132.85 21.3446 133.516 21.3446C134.677 21.3446 135.515 21.179 136.03 20.8478C136.546 20.5094 136.804 20.0162 136.804 19.3682C136.804 19.0226 136.743 18.7346 136.621 18.5042C136.499 18.2738 136.292 18.083 135.998 17.9318C135.704 17.7734 135.3 17.6474 134.784 17.5538L132.807 17.2298C131.64 17.0354 130.794 16.6754 130.271 16.1498C129.756 15.6242 129.498 14.9186 129.498 14.033C129.498 12.9818 129.924 12.1466 130.776 11.5274C131.629 10.9082 132.925 10.5986 134.666 10.5986C135.805 10.5986 136.883 10.7426 137.9 11.0306V12.413C136.868 12.1178 135.794 11.9702 134.677 11.9702C133.445 11.9702 132.567 12.1466 132.044 12.4994C131.521 12.8522 131.26 13.3418 131.26 13.9682C131.26 14.4434 131.403 14.8322 131.69 15.1346C131.983 15.437 132.492 15.653 133.215 15.7826L135.192 16.1066C136.367 16.301 137.223 16.6466 137.76 17.1434C138.297 17.633 138.566 18.335 138.566 19.2494C138.566 20.3366 138.14 21.1862 137.287 21.7982C136.435 22.403 135.171 22.7054 133.495 22.7054ZM141.391 5.04736H143.196V12.089H143.292C143.844 11.5994 144.474 11.2286 145.183 10.9766C145.9 10.7246 146.655 10.5986 147.45 10.5986C148.783 10.5986 149.829 10.9658 150.588 11.7002C151.354 12.4274 151.737 13.5686 151.737 15.1238V22.5002H149.932V15.2102C149.932 14.1374 149.678 13.367 149.17 12.899C148.661 12.431 147.938 12.197 146.999 12.197C146.29 12.197 145.602 12.3302 144.936 12.5966C144.27 12.863 143.69 13.2554 143.196 13.7738V22.5002H141.391V5.04736Z" fill="#1F1F1F"/>
</g>
<defs>
<linearGradient id="paint0_linear_507_5433" x1="38.9477" y1="3.1499" x2="11.9706" y2="25.962" gradientUnits="userSpaceOnUse">
<stop stop-color="#C558A1"/>
<stop offset="1" stop-color="#7A4BA3"/>
</linearGradient>
<clipPath id="clip0_507_5433">
<rect width="154" height="27" fill="white"/>
</clipPath>
</defs>
</svg>
