<svg width="50" height="74" viewBox="0 0 50 74" fill="none" xmlns="http://www.w3.org/2000/svg">
<g clip-path="url(#clip0_103_541)">
<path fill-rule="evenodd" clip-rule="evenodd" d="M18.2484 36.614C13.3861 36.614 8.78735 34.71 5.36028 31.2537C1.90392 27.7973 0 23.2279 0 18.3656C0 13.474 1.90392 8.90453 5.36028 5.44818C8.78735 1.99182 13.3861 0.117188 18.2484 0.117188C23.1107 0.117188 27.7094 1.99182 31.1658 5.44818C34.5929 8.90453 36.4968 13.474 36.4968 18.3656C36.4968 23.2279 34.5929 27.7973 31.1658 31.2537C27.7094 34.71 23.1107 36.614 18.2484 36.614ZM18.2484 32.5132C14.4698 32.5132 10.8963 31.0486 8.23081 28.3832C5.56532 25.6884 4.07147 22.1441 4.07147 18.3656C4.07147 14.5577 5.56532 11.0135 8.23081 8.31871C10.8963 5.65322 14.4698 4.18866 18.2484 4.18866C22.0269 4.18866 25.6005 5.65322 28.266 8.31871C33.802 13.8547 33.802 22.8471 28.266 28.3832C25.6005 31.0486 22.0269 32.5132 18.2484 32.5132Z" fill="#8293B0"/>
<path fill-rule="evenodd" clip-rule="evenodd" d="M35.0909 38.3422C34.8566 38.3422 34.6222 38.2543 34.4465 38.0786L30.5215 34.1536C31.1952 33.6263 31.8103 33.0991 32.3961 32.484C33.0698 31.8396 33.6556 31.1366 34.2122 30.4043L38.1665 34.3586C38.518 34.7101 38.518 35.2666 38.1665 35.6181C37.9907 35.7646 37.7857 35.8525 37.5514 35.8525C37.3463 35.8525 37.1706 35.7939 37.0241 35.6767L35.8818 37.0827C36.0282 37.4049 35.9696 37.7857 35.706 38.0786C35.5303 38.2543 35.2959 38.3422 35.0909 38.3422Z" fill="#8293B0"/>
<path fill-rule="evenodd" clip-rule="evenodd" d="M46.192 49.8829C45.1961 49.8829 44.2295 49.5021 43.5265 48.7698L35.2664 40.539C34.5634 39.836 34.1826 38.8694 34.1826 37.8735C34.1826 36.8483 34.5634 35.8817 35.2664 35.1787C35.9987 34.4758 36.936 34.0657 37.9612 34.0657C38.9864 34.0657 39.9237 34.4758 40.656 35.1787L48.8868 43.4096C50.3513 44.9034 50.3513 47.3053 48.8868 48.7698C48.1545 49.5021 47.2172 49.8829 46.192 49.8829Z" fill="#8293B0"/>
<path fill-rule="evenodd" clip-rule="evenodd" d="M12.3317 24.2824C9.05109 21.0018 9.05109 15.7001 12.3317 12.4195C12.6539 12.068 12.6539 11.5115 12.3317 11.1893C11.9802 10.8378 11.4237 10.8378 11.0722 11.1893C7.11787 15.1436 7.11787 21.5583 11.0722 25.5127C11.2479 25.6884 11.4823 25.7763 11.6873 25.7763C11.9216 25.7763 12.1559 25.6884 12.3317 25.5127C12.6539 25.1905 12.6539 24.6339 12.3317 24.2824Z" fill="#8293B0"/>
</g>
<ellipse cx="25" cy="69" rx="25" ry="5" fill="#E9E9E9"/>
<defs>
<clipPath id="clip0_103_541">
<rect width="50" height="50" fill="white"/>
</clipPath>
</defs>
</svg>
