<svg width="32" height="32" viewBox="0 0 32 32" fill="none" xmlns="http://www.w3.org/2000/svg">
<path d="M6.5 29H25.5C25.775 29 26 28.775 26 28.5V9H21.5C20.673 9 20 8.327 20 7.5V3H6.5C6.225 3 6 3.225 6 3.5V28.5C6 28.775 6.225 29 6.5 29Z" fill="white"/>
<path d="M25.293 8.00003L21 3.70703V7.50003C21 7.77503 21.225 8.00003 21.5 8.00003H25.293Z" fill="white"/>
<path opacity="0.67" fill-rule="evenodd" clip-rule="evenodd" d="M26.56 7.854L21.146 2.439C20.8642 2.15891 20.4833 2.00117 20.086 2H6.5C5.673 2 5 2.673 5 3.5V28.5C5 29.327 5.673 30 6.5 30H25.5C26.327 30 27 29.327 27 28.5V8.914C27 8.514 26.844 8.137 26.56 7.854ZM21 3.707L25.293 8H21.5C21.3675 7.99974 21.2404 7.94697 21.1467 7.85326C21.053 7.75955 21.0003 7.63253 21 7.5V3.707ZM6.5 29H25.5C25.775 29 26 28.775 26 28.5V9H21.5C20.673 9 20 8.327 20 7.5V3H6.5C6.225 3 6 3.225 6 3.5V28.5C6 28.776 6.224 29 6.5 29Z" fill="#605E5C"/>
<path fill-rule="evenodd" clip-rule="evenodd" d="M23.5 13H8.5C8.36739 13 8.24021 12.9473 8.14645 12.8536C8.05268 12.7598 8 12.6326 8 12.5C8 12.3674 8.05268 12.2402 8.14645 12.1464C8.24021 12.0527 8.36739 12 8.5 12H23.5C23.6326 12 23.7598 12.0527 23.8536 12.1464C23.9473 12.2402 24 12.3674 24 12.5C24 12.6326 23.9473 12.7598 23.8536 12.8536C23.7598 12.9473 23.6326 13 23.5 13ZM23.5 15H8.5C8.36739 15 8.24021 14.9473 8.14645 14.8536C8.05268 14.7598 8 14.6326 8 14.5C8 14.3674 8.05268 14.2402 8.14645 14.1464C8.24021 14.0527 8.36739 14 8.5 14H23.5C23.6326 14 23.7598 14.0527 23.8536 14.1464C23.9473 14.2402 24 14.3674 24 14.5C24 14.6326 23.9473 14.7598 23.8536 14.8536C23.7598 14.9473 23.6326 15 23.5 15ZM8.5 17H23.5C23.6326 17 23.7598 16.9473 23.8536 16.8536C23.9473 16.7598 24 16.6326 24 16.5C24 16.3674 23.9473 16.2402 23.8536 16.1464C23.7598 16.0527 23.6326 16 23.5 16H8.5C8.36739 16 8.24021 16.0527 8.14645 16.1464C8.05268 16.2402 8 16.3674 8 16.5C8 16.6326 8.05268 16.7598 8.14645 16.8536C8.24021 16.9473 8.36739 17 8.5 17Z" fill="#C8C6C4"/>
<path fill-rule="evenodd" clip-rule="evenodd" d="M13 19H19C19.5304 19 20.0391 19.2107 20.4142 19.5858C20.7893 19.9609 21 20.4696 21 21V25C21 25.5304 20.7893 26.0391 20.4142 26.4142C20.0391 26.7893 19.5304 27 19 27H13C12.4696 27 11.9609 26.7893 11.5858 26.4142C11.2107 26.0391 11 25.5304 11 25V21C11 20.4696 11.2107 19.9609 11.5858 19.5858C11.9609 19.2107 12.4696 19 13 19ZM20 21C20 20.449 19.551 20 19 20H13C12.449 20 12 20.449 12 21V25C12 25.551 12.449 26 13 26H19C19.551 26 20 25.551 20 25V21ZM5 26H9.75C9.8163 26 9.87989 25.9737 9.92678 25.9268C9.97366 25.8799 10 25.8163 10 25.75V20.25C10 20.1837 9.97366 20.1201 9.92678 20.0732C9.87989 20.0263 9.8163 20 9.75 20H5C4.73478 20 4.48043 20.1054 4.29289 20.2929C4.10536 20.4804 4 20.7348 4 21V25C4 25.2652 4.10536 25.5196 4.29289 25.7071C4.48043 25.8946 4.73478 26 5 26ZM22.25 20H27C27.2652 20 27.5196 20.1054 27.7071 20.2929C27.8946 20.4804 28 20.7348 28 21V25C28 25.2652 27.8946 25.5196 27.7071 25.7071C27.5196 25.8946 27.2652 26 27 26H22.25C22.1837 26 22.1201 25.9737 22.0732 25.9268C22.0263 25.8799 22 25.8163 22 25.75V20.25C22 20.1837 22.0263 20.1201 22.0732 20.0732C22.1201 20.0263 22.1837 20 22.25 20Z" fill="#D65532"/>
</svg>
