<svg width="28" height="28" viewBox="0 0 28 28" fill="none" xmlns="http://www.w3.org/2000/svg">
<path d="M15.4636 2.99268L22.8066 7.23235C22.8649 7.26735 22.9232 7.30235 22.9792 7.33968L14.0052 12.6422L5.03125 7.33968C5.08768 7.30213 5.14527 7.26633 5.20392 7.23235L12.5469 2.99268C12.9902 2.73646 13.4932 2.60156 14.0052 2.60156C14.5173 2.60156 15.0203 2.73646 15.4636 2.99268Z" fill="#704C9B"/>
<path d="M24.249 9.53418L24.2568 9.76074V18.2402C24.2567 18.7166 24.1403 19.1857 23.917 19.6064C23.6935 20.0275 23.3694 20.3881 22.9746 20.6553L22.7998 20.7656L15.4561 25.0049L15.3115 25.084L15.1641 25.1533V14.665L24.2236 9.3125L24.249 9.53418ZM12.835 14.666V25.1523C12.735 25.1092 12.638 25.0596 12.5439 25.0049L5.2002 20.7656C4.7571 20.5095 4.38873 20.1415 4.13281 19.6982C3.87691 19.255 3.74251 18.752 3.74219 18.2402V9.76074C3.74219 9.60912 3.75305 9.45946 3.77637 9.3125L12.835 14.666Z" fill="url(#paint0_linear_1201_1343)"/>
<defs>
<linearGradient id="paint0_linear_1201_1343" x1="13.9995" y1="25.1533" x2="13.9995" y2="9.3125" gradientUnits="userSpaceOnUse">
<stop stop-color="#D941F4"/>
<stop offset="1" stop-color="#7C4BA5"/>
</linearGradient>
</defs>
</svg>
