<svg width="16" height="16" viewBox="0 0 16 16" fill="none" xmlns="http://www.w3.org/2000/svg">
<path fill-rule="evenodd" clip-rule="evenodd" d="M12.1105 1.84402L12.2805 1.86535C12.7299 1.92735 13.3245 2.01069 13.6612 2.34802C13.9372 2.62335 14.0432 3.07135 14.1065 3.47135L14.1439 3.72869C14.2279 4.33535 14.2499 5.13002 14.1065 6.01269C13.8239 7.75469 12.8965 9.83335 10.5679 11.4427C10.5552 11.568 10.5545 11.6947 10.5572 11.8214L10.5639 12.0107C10.5745 12.302 10.5852 12.5927 10.5039 12.876C10.3772 13.316 9.92585 13.606 9.50385 13.814L9.29719 13.912L9.03052 14.0294C8.53185 14.2414 7.85852 14.4587 7.43652 14.036C7.18319 13.7834 7.07919 13.4127 6.99452 13.044L6.96319 12.906C6.92777 12.7318 6.88327 12.5596 6.82985 12.39C6.79652 12.2927 6.76052 12.1934 6.72185 12.0934C6.67905 12.1454 6.63389 12.1954 6.58652 12.2434C6.35652 12.4734 6.01319 12.634 5.73052 12.7467C5.42185 12.8687 5.07252 12.9754 4.74919 13.0634L4.58319 13.1074L4.26519 13.1867L3.97719 13.2534L3.63252 13.3267L3.41719 13.3687C3.30979 13.3886 3.19917 13.382 3.09487 13.3496C2.99057 13.3172 2.89571 13.26 2.81848 13.1827C2.74125 13.1055 2.68397 13.0106 2.65157 12.9063C2.61917 12.802 2.61264 12.6914 2.63252 12.584L2.68985 12.2967L2.79252 11.8314L2.87519 11.4914L2.93785 11.2514C3.02585 10.9287 3.13252 10.5794 3.25519 10.2714C3.36719 9.98802 3.52785 9.64469 3.75785 9.41469L3.81119 9.36335L3.76852 9.34602C3.65458 9.30271 3.53918 9.26335 3.42252 9.22802L3.23785 9.17135C2.77519 9.03135 2.28052 8.88069 1.97319 8.57269C1.59985 8.20002 1.72585 7.63269 1.90585 7.16069L1.97919 6.97802L2.09719 6.71135L2.19519 6.50469C2.40319 6.08335 2.69319 5.63202 3.13319 5.50535C3.36652 5.43869 3.60919 5.43469 3.85319 5.44135L3.99985 5.44602C4.19052 5.45269 4.38052 5.46002 4.56652 5.44202C6.17585 3.11269 8.25452 2.18535 9.99652 1.90269C10.6953 1.78788 11.4064 1.76815 12.1105 1.84402Z" fill="white"/>
<path fill-rule="evenodd" clip-rule="evenodd" d="M10.3579 5.64447C9.6326 4.91847 8.3926 5.25047 8.12726 6.2418C8.06662 6.46785 8.06654 6.70589 8.12704 6.93198C8.18754 7.15807 8.30649 7.36425 8.47193 7.5298C9.19726 8.2558 10.4373 7.9238 10.7026 6.93247C10.7632 6.70642 10.7633 6.46838 10.7028 6.24229C10.6423 6.0162 10.5234 5.81002 10.3579 5.64447ZM5.56926 10.2938C5.46437 10.2161 5.33897 10.1708 5.2086 10.1637C5.07824 10.1566 4.94865 10.1879 4.83593 10.2538L4.7626 10.3031L4.7006 10.3585L4.61726 10.4638C4.44393 10.7145 4.34526 11.0611 4.2686 11.3851L4.1966 11.6971L4.1626 11.8391L4.28993 11.8085L4.5686 11.7445C4.95393 11.6545 5.38126 11.5378 5.64393 11.3011C5.75814 11.187 5.82704 11.0353 5.83783 10.8742C5.84861 10.713 5.80056 10.5535 5.7026 10.4251L5.64793 10.3625L5.63193 10.3471L5.56926 10.2938Z" fill="#704C9B"/>
</svg>
