<svg width="16" height="16" viewBox="0 0 16 16" fill="none" xmlns="http://www.w3.org/2000/svg">
<path d="M5.3335 14.6667V12.6667C5.3335 11.4096 5.3335 10.7811 5.72402 10.3905C6.11454 10 6.7431 10 8.00016 10C9.25723 10 9.88576 10 10.2763 10.3905C10.6668 10.7811 10.6668 11.4096 10.6668 12.6667V14.6667" stroke="white" stroke-linejoin="round"/>
<path d="M6.6665 4.66699H9.33317" stroke="white" stroke-linejoin="round"/>
<path d="M2 7.90527C2 4.85433 2 3.32885 2.92449 2.3623C2.95865 2.32659 2.99359 2.29165 3.02929 2.2575C3.99584 1.33301 5.52133 1.33301 8.57227 1.33301C9.29533 1.33301 9.64367 1.33551 9.9752 1.45925C10.2945 1.57841 10.5619 1.80127 11.0968 2.247L12.5607 3.46695C13.2685 4.05675 13.6223 4.35164 13.8112 4.75478C14 5.15792 14 5.61856 14 6.53984V8.66634C14 11.1661 14 12.4161 13.3634 13.2923C13.1578 13.5753 12.9089 13.8241 12.6259 14.0297C11.7497 14.6663 10.4998 14.6663 8 14.6663C5.50018 14.6663 4.25027 14.6663 3.37405 14.0297C3.09107 13.8241 2.84221 13.5753 2.63661 13.2923C2 12.4161 2 11.1661 2 8.66634V7.90527Z" stroke="white" stroke-linejoin="round"/>
</svg>
