<svg width="20" height="20" viewBox="0 0 20 20" fill="none" xmlns="http://www.w3.org/2000/svg">
<path d="M12.9168 9.99967C12.9168 11.6105 11.611 12.9163 10.0002 12.9163C8.38933 12.9163 7.0835 11.6105 7.0835 9.99967C7.0835 8.38884 8.38933 7.08301 10.0002 7.08301C11.611 7.08301 12.9168 8.38884 12.9168 9.99967Z" stroke="white" stroke-width="1.5"/>
<path d="M17.509 11.7473C17.9439 11.6301 18.1614 11.5714 18.2473 11.4593C18.3332 11.3472 18.3332 11.1668 18.3332 10.806V9.19459C18.3332 8.83384 18.3332 8.65343 18.2473 8.54134C18.1613 8.42918 17.9439 8.37051 17.509 8.25324C15.8837 7.81492 14.8664 6.11568 15.2859 4.50098C15.4013 4.05692 15.4589 3.83489 15.4038 3.70467C15.3488 3.57444 15.1908 3.48471 14.8746 3.30523L13.4373 2.4892C13.1272 2.31308 12.9721 2.22503 12.8329 2.24378C12.6937 2.26253 12.5367 2.4192 12.2225 2.73253C11.0065 3.94566 8.9945 3.94561 7.77845 2.73246C7.46436 2.41912 7.30732 2.26245 7.16811 2.24369C7.02891 2.22494 6.87381 2.313 6.56361 2.48912L5.12637 3.30515C4.81028 3.48462 4.65223 3.57435 4.59715 3.70455C4.54207 3.83476 4.59973 4.05682 4.71505 4.50093C5.13431 6.11568 4.11627 7.81495 2.49069 8.25326C2.05577 8.37051 1.83831 8.42918 1.7524 8.54126C1.6665 8.65343 1.6665 8.83384 1.6665 9.19459V10.806C1.6665 11.1668 1.6665 11.3472 1.7524 11.4593C1.8383 11.5714 2.05576 11.6301 2.49069 11.7473C4.116 12.1857 5.13324 13.8849 4.71377 15.4996C4.59841 15.9437 4.54073 16.1657 4.5958 16.2959C4.65089 16.4262 4.80894 16.5159 5.12505 16.6953L6.5623 17.5114C6.87251 17.6875 7.02762 17.7756 7.16684 17.7568C7.30605 17.7381 7.46307 17.5813 7.7771 17.268C8.99375 16.0539 11.0072 16.0538 12.2239 17.2679C12.5379 17.5813 12.6949 17.738 12.8342 17.7568C12.9733 17.7755 13.1285 17.6874 13.4387 17.5113L14.8759 16.6953C15.1921 16.5158 15.3502 16.4261 15.4052 16.2958C15.4603 16.1656 15.4026 15.9436 15.2872 15.4995C14.8675 13.8849 15.8839 12.1858 17.509 11.7473Z" stroke="white" stroke-width="1.5"/>
</svg>
