<svg width="16" height="16" viewBox="0 0 16 16" fill="none" xmlns="http://www.w3.org/2000/svg">
<path d="M10.3332 8.00033C10.3332 9.28899 9.2885 10.3337 7.99984 10.3337C6.71117 10.3337 5.6665 9.28899 5.6665 8.00033C5.6665 6.71166 6.71117 5.66699 7.99984 5.66699C9.2885 5.66699 10.3332 6.71166 10.3332 8.00033Z" stroke="#28303E" stroke-width="1.2"/>
<path d="M14.0075 9.39787C14.3554 9.30407 14.5294 9.25714 14.5981 9.16741C14.6668 9.07774 14.6668 8.93341 14.6668 8.64481V7.35567C14.6668 7.06707 14.6668 6.92274 14.5981 6.83307C14.5294 6.74334 14.3554 6.69641 14.0075 6.60259C12.7072 6.25193 11.8934 4.89255 12.229 3.60079C12.3213 3.24553 12.3674 3.06791 12.3234 2.96373C12.2793 2.85955 12.1529 2.78777 11.9 2.64418L10.7502 1.99136C10.502 1.85047 10.378 1.78002 10.2666 1.79502C10.1552 1.81002 10.0296 1.93536 9.7783 2.18603C8.8055 3.15653 7.1959 3.15649 6.22306 2.18597C5.97178 1.93529 5.84615 1.80996 5.73478 1.79495C5.62342 1.77995 5.49934 1.8504 5.25118 1.99129L4.10139 2.64412C3.84852 2.78769 3.72208 2.85948 3.67802 2.96364C3.63395 3.06781 3.68008 3.24545 3.77233 3.60074C4.10774 4.89254 3.29331 6.25196 1.99284 6.60261C1.64491 6.69641 1.47094 6.74334 1.40222 6.83301C1.3335 6.92274 1.3335 7.06707 1.3335 7.35567V8.64481C1.3335 8.93341 1.3335 9.07774 1.40222 9.16741C1.47093 9.25714 1.6449 9.30407 1.99284 9.39787C3.2931 9.74854 4.10688 11.1079 3.77131 12.3997C3.67902 12.7549 3.63288 12.9325 3.67694 13.0367C3.721 13.1409 3.84744 13.2127 4.10033 13.3563L5.25013 14.0091C5.4983 14.15 5.62239 14.2205 5.73376 14.2055C5.84514 14.1905 5.97075 14.0651 6.22197 13.8144C7.1953 12.8431 8.80603 12.8431 9.77943 13.8143C10.0306 14.0651 10.1562 14.1904 10.2676 14.2054C10.379 14.2204 10.5031 14.1499 10.7512 14.0091L11.901 13.3562C12.154 13.2127 12.2804 13.1409 12.3244 13.0367C12.3685 12.9325 12.3224 12.7549 12.23 12.3996C11.8943 11.1079 12.7074 9.74861 14.0075 9.39787Z" stroke="#28303E" stroke-width="1.2"/>
</svg>
