<svg width="20" height="20" viewBox="0 0 20 20" fill="none" xmlns="http://www.w3.org/2000/svg">
<path d="M13.5876 3.65459C13.0951 3.65459 12.8488 3.65459 12.6245 3.57134C12.5933 3.55978 12.5626 3.54706 12.5324 3.5332C12.3149 3.43343 12.1408 3.25929 11.7925 2.91103C10.9909 2.10944 10.5901 1.70865 10.097 1.67169C10.0307 1.66673 9.96406 1.66673 9.89781 1.67169C9.40465 1.70865 9.00381 2.10944 8.20227 2.91102C7.854 3.25929 7.67987 3.43343 7.46237 3.5332C7.43216 3.54706 7.40145 3.55978 7.37029 3.57134C7.14594 3.65459 6.89967 3.65459 6.40715 3.65459H6.3163C5.05971 3.65459 4.43142 3.65459 4.04105 4.04496C3.65068 4.43533 3.65068 5.06362 3.65068 6.32021V6.41106C3.65068 6.90358 3.65068 7.14984 3.56744 7.37419C3.55587 7.40535 3.54315 7.43607 3.5293 7.46628C3.42952 7.68378 3.25539 7.85791 2.90711 8.20618C2.10554 9.00772 1.70475 9.40855 1.66779 9.90172C1.66282 9.96797 1.66282 10.0346 1.66779 10.1009C1.70475 10.5941 2.10554 10.9948 2.90711 11.7964C3.25539 12.1447 3.42952 12.3188 3.5293 12.5363C3.54315 12.5666 3.55587 12.5972 3.56744 12.6284C3.65068 12.8527 3.65068 13.0991 3.65068 13.5916V13.6824C3.65068 14.939 3.65068 15.5673 4.04105 15.9576C4.43142 16.3481 5.05971 16.3481 6.3163 16.3481H6.40715C6.89967 16.3481 7.14594 16.3481 7.37029 16.4313C7.40145 16.4428 7.43216 16.4556 7.46237 16.4694C7.67987 16.5692 7.854 16.7433 8.20227 17.0916C9.00381 17.8931 9.40465 18.294 9.89781 18.3309C9.96406 18.3359 10.0306 18.3359 10.097 18.3309C10.5901 18.294 10.9909 17.8931 11.7925 17.0916C12.1408 16.7433 12.3149 16.5692 12.5324 16.4694C12.5626 16.4556 12.5933 16.4428 12.6245 16.4313C12.8488 16.3481 13.0951 16.3481 13.5876 16.3481H13.6785C14.9351 16.3481 15.5634 16.3481 15.9537 15.9576C16.3441 15.5673 16.3441 14.939 16.3441 13.6824V13.5916C16.3441 13.0991 16.3441 12.8527 16.4274 12.6284C16.4389 12.5972 16.4516 12.5666 16.4655 12.5363C16.5653 12.3188 16.7394 12.1447 17.0876 11.7964C17.8892 10.9948 18.2901 10.5941 18.327 10.1009C18.332 10.0346 18.332 9.96797 18.327 9.90172C18.2901 9.40855 17.8892 9.00772 17.0876 8.20618C16.7394 7.85791 16.5653 7.68378 16.4655 7.46628C16.4516 7.43607 16.4389 7.40535 16.4274 7.37419C16.3441 7.14984 16.3441 6.90358 16.3441 6.41106V6.32021C16.3441 5.06362 16.3441 4.43533 15.9537 4.04496C15.5634 3.65459 14.9351 3.65459 13.6785 3.65459H13.5876Z" stroke="#704C9B" stroke-width="1.5"/>
<path d="M12.9193 9.9987C12.9193 11.6095 11.6134 12.9154 10.0026 12.9154C8.39177 12.9154 7.08594 11.6095 7.08594 9.9987C7.08594 8.38786 8.39177 7.08203 10.0026 7.08203C11.6134 7.08203 12.9193 8.38786 12.9193 9.9987Z" stroke="#704C9B" stroke-width="1.5"/>
</svg>
