<svg width="20" height="20" viewBox="0 0 20 20" fill="none" xmlns="http://www.w3.org/2000/svg">
<path d="M6.66797 11.2497H13.3346M6.66797 7.08301H10.0013" stroke="#4F607D" stroke-width="1.5" stroke-linecap="round" stroke-linejoin="round"/>
<path d="M5.08364 15.833C4.00022 15.7264 3.18859 15.401 2.64428 14.8567C1.66797 13.8804 1.66797 12.309 1.66797 9.16634V8.74967C1.66797 5.60697 1.66797 4.03563 2.64428 3.05932C3.62059 2.08301 5.19194 2.08301 8.33464 2.08301H11.668C14.8106 2.08301 16.3821 2.08301 17.3583 3.05932C18.3346 4.03563 18.3346 5.60697 18.3346 8.74967V9.16634C18.3346 12.309 18.3346 13.8804 17.3583 14.8567C16.3821 15.833 14.8106 15.833 11.668 15.833C11.2009 15.8434 10.8289 15.8789 10.4635 15.9622C9.4648 16.1921 8.54005 16.7031 7.62619 17.1488C6.32404 17.7837 5.67297 18.1012 5.26438 17.8039C4.48271 17.2218 5.24675 15.4179 5.41797 14.583" stroke="#4F607D" stroke-width="1.5" stroke-linecap="round" stroke-linejoin="round"/>
</svg>
