<svg width="28" height="28" viewBox="0 0 28 28" fill="none" xmlns="http://www.w3.org/2000/svg">
<path fill-rule="evenodd" clip-rule="evenodd" d="M14.0026 2.33594C20.4461 2.33594 25.6693 7.5591 25.6693 14.0026C25.6693 20.4461 20.4461 25.6693 14.0026 25.6693C7.5591 25.6693 2.33594 20.4461 2.33594 14.0026C2.33594 7.5591 7.5591 2.33594 14.0026 2.33594Z" fill="url(#paint0_linear_507_7735)"/>
<path fill-rule="evenodd" clip-rule="evenodd" d="M14.9982 4.71756C14.449 4.65851 14 5.11178 14 5.66406V12.9974C14 13.5497 14.4477 13.9974 15 13.9974H22.3333C22.8856 13.9974 23.3389 13.5484 23.2798 12.9992C23.0531 10.8909 22.1131 8.91119 20.5997 7.39773C19.0862 5.88428 17.1065 4.94427 14.9982 4.71756Z" fill="#E576FF"/>
<defs>
<linearGradient id="paint0_linear_507_7735" x1="12.7749" y1="2.66667" x2="9.5" y2="25" gradientUnits="userSpaceOnUse">
<stop stop-color="#854BAD"/>
<stop offset="1" stop-color="#CA69DE"/>
</linearGradient>
</defs>
</svg>
