<svg width="56" height="56" viewBox="0 0 56 56" fill="none" xmlns="http://www.w3.org/2000/svg">
<g clip-path="url(#clip0_928_1120)">
<path d="M24.6314 31.9487C28.2407 31.9487 31.5767 30.9315 34.2454 29.2034C36.3126 27.88 39.0032 28.0987 40.8189 29.7503C45.8611 34.3222 48.7267 40.8081 48.7157 47.6222V50.5425C48.7157 53.5612 46.2657 56.0003 43.247 56.0003H6.01575C2.997 56.0003 0.546999 53.5612 0.546999 50.5425V47.6222C0.525124 40.819 3.39075 34.3222 8.43294 29.7612C10.2486 28.1097 12.9501 27.8909 15.0064 29.2143C17.6861 30.9315 21.022 31.9487 24.6314 31.9487Z" fill="url(#paint0_linear_928_1120)"/>
<path d="M24.6314 27.0812C32.1097 27.0812 38.1721 21.0189 38.1721 13.5406C38.1721 6.06234 32.1097 0 24.6314 0C17.1532 0 11.0908 6.06234 11.0908 13.5406C11.0908 21.0189 17.1532 27.0812 24.6314 27.0812Z" fill="#C077F8"/>
<path d="M42 53C46.4183 53 50 49.4183 50 45C50 40.5817 46.4183 37 42 37C37.5817 37 34 40.5817 34 45C34 49.4183 37.5817 53 42 53Z" fill="url(#paint1_linear_928_1120)"/>
<path d="M44.4615 43.7692H43.2307V42.5384C43.2307 41.859 42.6793 41.3076 41.9999 41.3076C41.3199 41.3076 40.7692 41.859 40.7692 42.5384V43.7692H39.5384C38.8584 43.7692 38.3076 44.3205 38.3076 44.9999C38.3076 45.6793 38.8584 46.2307 39.5384 46.2307H40.7692V47.4615C40.7692 48.1408 41.3199 48.6922 41.9999 48.6922C42.6793 48.6922 43.2307 48.1408 43.2307 47.4615V46.2307H44.4615C45.1408 46.2307 45.6922 45.6793 45.6922 44.9999C45.6922 44.3205 45.1408 43.7692 44.4615 43.7692Z" fill="url(#paint2_linear_928_1120)"/>
</g>
<defs>
<linearGradient id="paint0_linear_928_1120" x1="2.51922" y1="52.2665" x2="17.1647" y2="23.1157" gradientUnits="userSpaceOnUse">
<stop stop-color="#EBB3F4"/>
<stop offset="1" stop-color="#E1D1F8"/>
</linearGradient>
<linearGradient id="paint1_linear_928_1120" x1="36.3452" y1="50.6542" x2="47.6542" y2="39.3458" gradientUnits="userSpaceOnUse">
<stop stop-color="#5D00CE"/>
<stop offset="1" stop-color="#BA24FF"/>
</linearGradient>
<linearGradient id="paint2_linear_928_1120" x1="39.8984" y1="47.1008" x2="44.1008" y2="42.899" gradientUnits="userSpaceOnUse">
<stop stop-color="#B3D8F4"/>
<stop offset="1" stop-color="#D1E7F8"/>
</linearGradient>
<clipPath id="clip0_928_1120">
<rect width="56" height="56" fill="white"/>
</clipPath>
</defs>
</svg>
