<svg width="36" height="36" viewBox="0 0 36 36" fill="none" xmlns="http://www.w3.org/2000/svg">
<path d="M18 6.88672C18.2906 6.88672 18.5764 6.96308 18.8281 7.1084C19.0796 7.25357 19.2883 7.4625 19.4336 7.71387V7.71484L29.9131 25.8652C30.0584 26.117 30.1347 26.4027 30.1348 26.6934C30.1348 26.984 30.0584 27.2697 29.9131 27.5215C29.7677 27.7732 29.5584 27.9826 29.3066 28.1279C29.0549 28.2732 28.7691 28.3496 28.4785 28.3496H7.52051C7.22985 28.3496 6.94412 28.2732 6.69238 28.1279C6.44061 27.9826 6.23129 27.7733 6.08594 27.5215C5.94061 27.2697 5.86426 26.984 5.86426 26.6934C5.86428 26.4027 5.94062 26.1169 6.08594 25.8652L16.5664 7.71484C16.7117 7.46322 16.9203 7.25371 17.1719 7.1084C17.4235 6.9631 17.7094 6.88675 18 6.88672Z" stroke="#EE404C"/>
<path d="M18.1366 13.0625H17.8632C17.1901 13.0625 16.6445 13.6081 16.6445 14.2812V20.1061C16.6445 20.7792 17.1901 21.3248 17.8632 21.3248H18.1366C18.8096 21.3248 19.3552 20.7792 19.3552 20.1061V14.2812C19.3552 13.6081 18.8096 13.0625 18.1366 13.0625Z" fill="#EE404C"/>
<path d="M17.9999 25.9441C18.7484 25.9441 19.3552 25.3373 19.3552 24.5887C19.3552 23.8402 18.7484 23.2334 17.9999 23.2334C17.2513 23.2334 16.6445 23.8402 16.6445 24.5887C16.6445 25.3373 17.2513 25.9441 17.9999 25.9441Z" fill="#EE404C"/>
</svg>
