<svg width="32" height="32" viewBox="0 0 32 32" fill="none" xmlns="http://www.w3.org/2000/svg">
<path d="M9.5 29H28.5C28.775 29 29 28.775 29 28.5V9H24.5C23.673 9 23 8.327 23 7.5V3H9.5C9.225 3 9 3.225 9 3.5V28.5C9 28.775 9.225 29 9.5 29Z" fill="white"/>
<path d="M28.293 8.00003L24 3.70703V7.50003C24 7.77503 24.225 8.00003 24.5 8.00003H28.293Z" fill="white"/>
<path opacity="0.67" fill-rule="evenodd" clip-rule="evenodd" d="M29.56 7.854L24.146 2.439C23.8642 2.15891 23.4833 2.00117 23.086 2H9.5C8.673 2 8 2.673 8 3.5V28.5C8 29.327 8.673 30 9.5 30H28.5C29.327 30 30 29.327 30 28.5V8.914C30 8.514 29.844 8.137 29.56 7.854ZM24 3.707L28.293 8H24.5C24.3675 7.99974 24.2404 7.94697 24.1467 7.85326C24.053 7.75955 24.0003 7.63253 24 7.5V3.707ZM9.5 29H28.5C28.775 29 29 28.775 29 28.5V9H24.5C23.673 9 23 8.327 23 7.5V3H9.5C9.225 3 9 3.225 9 3.5V28.5C9 28.776 9.224 29 9.5 29Z" fill="#605E5C"/>
<path d="M25.5 22H17V23H25.5C25.6326 23 25.7598 22.9473 25.8536 22.8536C25.9473 22.7598 26 22.6326 26 22.5C26 22.3674 25.9473 22.2402 25.8536 22.1464C25.7598 22.0527 25.6326 22 25.5 22Z" fill="#103F91"/>
<path d="M25.5 19H17V20H25.5C25.6326 20 25.7598 19.9473 25.8536 19.8536C25.9473 19.7598 26 19.6326 26 19.5C26 19.3674 25.9473 19.2402 25.8536 19.1464C25.7598 19.0527 25.6326 19 25.5 19Z" fill="#185ABD"/>
<path d="M25.5 16H17V17H25.5C25.6326 17 25.7598 16.9473 25.8536 16.8536C25.9473 16.7598 26 16.6326 26 16.5C26 16.3674 25.9473 16.2402 25.8536 16.1464C25.7598 16.0527 25.6326 16 25.5 16Z" fill="#2B7CD3"/>
<path d="M25.5 13H17V14H25.5C25.6326 14 25.7598 13.9473 25.8536 13.8536C25.9473 13.7598 26 13.6326 26 13.5C26 13.3674 25.9473 13.2402 25.8536 13.1464C25.7598 13.0527 25.6326 13 25.5 13Z" fill="#41A5EE"/>
<path d="M3.5 25H14.5C14.8978 25 15.2794 24.842 15.5607 24.5607C15.842 24.2794 16 23.8978 16 23.5V12.5C16 12.1022 15.842 11.7206 15.5607 11.4393C15.2794 11.158 14.8978 11 14.5 11H3.5C3.10218 11 2.72064 11.158 2.43934 11.4393C2.15804 11.7206 2 12.1022 2 12.5V23.5C2 23.8978 2.15804 24.2794 2.43934 24.5607C2.72064 24.842 3.10218 25 3.5 25Z" fill="#185ABD"/>
<path d="M7.215 20.73H7.237C7.246 20.615 8.37 15 8.37 15H9.676C9.676 15 10.816 20.353 10.851 20.72H10.868C10.883 20.468 11.812 15 11.812 15H13L11.538 22H10.149C10.149 22 8.996 16.47 8.987 16.372H8.969C8.959 16.485 7.886 22 7.886 22H6.476L5 15H6.21C6.21 15 7.21 20.607 7.215 20.73Z" fill="#F9F7F7"/>
</svg>
